Dinish-Medium.ufo
<glyph name="quotedbl" format="2">
  <advance width="340"/>
  <unicode hex="0022"/>
  <outline>
    <contour>
      <point x="49" y="707" type="line"/>
      <point x="134.333" y="707" type="line"/>
      <point x="134.333" y="447.667" type="line"/>
      <point x="49" y="447.667" type="line"/>
    </contour>
    <contour>
      <point x="206.667" y="707" type="line"/>
      <point x="291" y="707" type="line"/>
      <point x="291" y="447.667" type="line"/>
      <point x="206.667" y="447.667" type="line"/>
    </contour>
  </outline>
</glyph>
<glyph name="numbersign" format="2">
  <advance width="532"/>
  <unicode hex="0023"/>
  <outline>
    <contour>
      <point x="414.333" y="432" type="line"/>
      <point x="396.333" y="290.333" type="line"/>
      <point x="484.667" y="290.333" type="line"/>
      <point x="484.667" y="220.333" type="line"/>
      <point x="387.667" y="220.333" type="line"/>
      <point x="358.333" y="0" type="line"/>
      <point x="282.333" y="0" type="line"/>
      <point x="310.667" y="220.333" type="line"/>
      <point x="180.667" y="220.333" type="line"/>
      <point x="151.333" y="0" type="line"/>
      <point x="75.667" y="0" type="line"/>
      <point x="104.667" y="220.333" type="line"/>
      <point x="23.333" y="220.333" type="line"/>
      <point x="23.333" y="290.333" type="line"/>
      <point x="114" y="290.333" type="line"/>
      <point x="132.667" y="432" type="line"/>
      <point x="48" y="432" type="line"/>
      <point x="48" y="501.333" type="line"/>
      <point x="141.333" y="501.333" type="line"/>
      <point x="168.667" y="707" type="line"/>
      <point x="243.667" y="707" type="line"/>
      <point x="217.333" y="501.333" type="line"/>
      <point x="347.333" y="501.333" type="line"/>
      <point x="374.667" y="707" type="line"/>
      <point x="450.333" y="707" type="line"/>
      <point x="424" y="501.333" type="line"/>
      <point x="510" y="501.333" type="line"/>
      <point x="510" y="432" type="line"/>
    </contour>
    <contour>
      <point x="338.667" y="432" type="line"/>
      <point x="208.333" y="432" type="line"/>
      <point x="189.333" y="290.333" type="line"/>
      <point x="319.667" y="290.333" type="line"/>
    </contour>
  </outline>
</glyph>
<glyph name="parenleft" format="2">
  <advance width="302"/>
  <unicode hex="0028"/>
  <outline>
    <contour>
      <point x="55.333" y="336" type="curve" smooth="yes"/>
      <point x="55.333" y="488.088"/>
      <point x="99.121" y="630.205"/>
      <point x="181" y="758" type="curve"/>
      <point x="246.333" y="758" type="line"/>
      <point x="180.525" y="628.349"/>
      <point x="144.667" y="481.481"/>
      <point x="144.667" y="336" type="curve" smooth="yes"/>
      <point x="144.667" y="190.824"/>
      <point x="180.648" y="43.372"/>
      <point x="246.333" y="-86" type="curve"/>
      <point x="180" y="-86" type="line"/>
      <point x="99.507" y="42.076"/>
      <point x="55.333" y="184.312"/>
    </contour>
  </outline>
</glyph>
<glyph name="two" format="2">
  <advance width="487"/>
  <unicode hex="0032"/>
  <outline>
    <contour>
      <point x="56.333" y="75.333" type="line"/>
      <point x="293.62" y="403.667" type="line" smooth="yes"/>
      <point x="322.81" y="444.145"/>
      <point x="336.333" y="482.876"/>
      <point x="336.333" y="525.951" type="curve" smooth="yes"/>
      <point x="336.333" y="595.22"/>
      <point x="301.221" y="634.667"/>
      <point x="239.574" y="634.667" type="curve" smooth="yes"/>
      <point x="178.195" y="634.667"/>
      <point x="149.072" y="595.181"/>
      <point x="149.333" y="512.333" type="curve"/>
      <point x="55.333" y="512.333" type="line"/>
      <point x="55.333" y="535.667" type="line" smooth="yes"/>
      <point x="55.333" y="644.651"/>
      <point x="132.054" y="717.333"/>
      <point x="245.91" y="717.333" type="curve" smooth="yes"/>
      <point x="360.467" y="717.333"/>
      <point x="432.333" y="643.766"/>
      <point x="432.333" y="527.679" type="curve" smooth="yes"/>
      <point x="432.333" y="468.799"/>
      <point x="413.771" y="418.255"/>
      <point x="369.333" y="356" type="curve" smooth="yes"/>
      <point x="175.879" y="84" type="line"/>
      <point x="432.333" y="84" type="line"/>
      <point x="432.333" y="0" type="line"/>
      <point x="56.333" y="0" type="line"/>
    </contour>
  </outline>
</glyph>
<glyph name="five" format="2">
  <advance width="499"/>
  <unicode hex="0035"/>
  <outline>
    <contour>
      <point x="62.333" y="170.667" type="curve"/>
      <point x="150.667" y="170.667" type="line"/>
      <point x="150.297" y="107.261"/>
      <point x="183.861" y="72"/>
      <point x="247.667" y="72" type="curve" smooth="yes"/>
      <point x="337.919" y="72"/>
      <point x="345.036" y="145.913"/>
      <point x="345.036" y="217.369" type="curve" smooth="yes"/>
      <point x="345.036" y="329.843"/>
      <point x="328.851" y="378"/>
      <point x="248" y="378" type="curve" smooth="yes"/>
      <point x="204.201" y="378"/>
      <point x="170.084" y="355.445"/>
      <point x="155" y="314" type="curve"/>
      <point x="73" y="314" type="line"/>
      <point x="73" y="707" type="line"/>
      <point x="425.667" y="707" type="line"/>
      <point x="425.667" y="622.667" type="line"/>
      <point x="157" y="622.667" type="line"/>
      <point x="157" y="419.333" type="line"/>
      <point x="183.826" y="446.967"/>
      <point x="225.921" y="461"/>
      <point x="264" y="461" type="curve" smooth="yes"/>
      <point x="389.188" y="461"/>
      <point x="438" y="376.23"/>
      <point x="438" y="261" type="curve" smooth="yes"/>
      <point x="438" y="187.667" type="line" smooth="yes"/>
      <point x="438" y="67.61"/>
      <point x="371.468" y="-10.333"/>
      <point x="248.333" y="-10.333" type="curve" smooth="yes"/>
      <point x="129.475" y="-10.333"/>
      <point x="62.157" y="49.727"/>
    </contour>
  </outline>
</glyph>
<glyph name="nine" format="2">
  <advance width="513"/>
  <unicode hex="0039"/>
  <outline>
    <contour>
      <point x="302" y="302" type="line"/>
      <point x="282.395" y="289.342"/>
      <point x="257.134" y="284.333"/>
      <point x="234" y="284.333" type="curve" smooth="yes"/>
      <point x="119.838" y="284.333"/>
      <point x="55.333" y="368.991"/>
      <point x="55.333" y="478" type="curve" smooth="yes"/>
      <point x="55.333" y="512.333" type="line" smooth="yes"/>
      <point x="55.333" y="634.28"/>
      <point x="133.505" y="717.333"/>
      <point x="256.667" y="717.333" type="curve" smooth="yes"/>
      <point x="381.305" y="717.333"/>
      <point x="457.333" y="639.088"/>
      <point x="457.333" y="515" type="curve" smooth="yes"/>
      <point x="457.333" y="481" type="line" smooth="yes"/>
      <point x="457.333" y="424.527"/>
      <point x="438.807" y="376.418"/>
      <point x="414" y="326.667" type="curve" smooth="yes"/>
      <point x="251.333" y="0" type="line"/>
      <point x="152.333" y="0" type="line"/>
    </contour>
    <contour>
      <point x="362.333" y="482" type="curve" smooth="yes"/>
      <point x="362.333" y="516.667" type="line" smooth="yes"/>
      <point x="362.333" y="583.183"/>
      <point x="327.59" y="634.667"/>
      <point x="256.667" y="634.667" type="curve" smooth="yes"/>
      <point x="185.945" y="634.667"/>
      <point x="150" y="583.8"/>
      <point x="150" y="517" type="curve" smooth="yes"/>
      <point x="150" y="483" type="line" smooth="yes"/>
      <point x="150" y="416.67"/>
      <point x="186.8" y="366.333"/>
      <point x="256.667" y="366.333" type="curve" smooth="yes"/>
      <point x="325.86" y="366.333"/>
      <point x="362.333" y="416.345"/>
    </contour>
  </outline>
</glyph>
<glyph name="semicolon" format="2">
  <advance width="205"/>
  <unicode hex="003B"/>
  <outline>
    <contour>
      <point x="49" y="457.333" type="line"/>
      <point x="156.333" y="457.333" type="line"/>
      <point x="156.333" y="346" type="line"/>
      <point x="49" y="346" type="line"/>
    </contour>
    <contour>
      <point x="71" y="110" type="line"/>
      <point x="155.667" y="110" type="line"/>
      <point x="155.667" y="-73" type="line"/>
      <point x="71" y="-148.667" type="line"/>
    </contour>
  </outline>
</glyph>
<glyph name="at" format="2">
  <advance width="892"/>
  <unicode hex="0040"/>
  <outline>
    <contour>
      <point x="55.333" y="324.667" type="line" smooth="yes"/>
      <point x="55.333" y="553.995"/>
      <point x="218.975" y="709.667"/>
      <point x="446.333" y="709.667" type="curve" smooth="yes"/>
      <point x="671.281" y="709.667"/>
      <point x="838" y="555.651"/>
      <point x="838" y="327.667" type="curve" smooth="yes"/>
      <point x="838" y="257.667" type="line" smooth="yes"/>
      <point x="838" y="155.346"/>
      <point x="794.134" y="56.333"/>
      <point x="677" y="56.333" type="curve" smooth="yes"/>
      <point x="624.267" y="56.333"/>
      <point x="578.088" y="78.392"/>
      <point x="554.667" y="127.333" type="curve"/>
      <point x="531.445" y="74.937"/>
      <point x="477.474" y="56.333"/>
      <point x="423.667" y="56.333" type="curve" smooth="yes"/>
      <point x="287.953" y="56.333"/>
      <point x="269.96" y="161.934"/>
      <point x="269.96" y="270.444" type="curve" smooth="yes"/>
      <point x="269.96" y="327" type="line" smooth="yes"/>
      <point x="269.96" y="427.595"/>
      <point x="305.785" y="513"/>
      <point x="420" y="513" type="curve" smooth="yes"/>
      <point x="463.331" y="513"/>
      <point x="508.85" y="497.31"/>
      <point x="532" y="458.333" type="curve"/>
      <point x="532" y="502.667" type="line"/>
      <point x="613.333" y="502.667" type="line"/>
      <point x="613.333" y="208" type="line" smooth="yes"/>
      <point x="613.333" y="165.567"/>
      <point x="629.476" y="127.333"/>
      <point x="678" y="127.333" type="curve" smooth="yes"/>
      <point x="743.225" y="127.333"/>
      <point x="751.638" y="202.867"/>
      <point x="751.638" y="265.69" type="curve" smooth="yes"/>
      <point x="751.638" y="326.667" type="line" smooth="yes"/>
      <point x="751.638" y="514.127"/>
      <point x="633.822" y="631.333"/>
      <point x="446.333" y="631.333" type="curve" smooth="yes"/>
      <point x="259.273" y="631.333"/>
      <point x="142.333" y="513.446"/>
      <point x="142.333" y="326.667" type="curve" smooth="yes"/>
      <point x="142.333" y="253.667" type="line" smooth="yes"/>
      <point x="142.333" y="68.087"/>
      <point x="258.941" y="-55.667"/>
      <point x="446.333" y="-55.667" type="curve" smooth="yes"/>
      <point x="525.698" y="-55.667"/>
      <point x="594.058" y="-40.602"/>
      <point x="664.333" y="-3" type="curve"/>
      <point x="695.667" y="-71.333" type="line"/>
      <point x="613.867" y="-117.979"/>
      <point x="540.006" y="-133.667"/>
      <point x="446.333" y="-133.667" type="curve" smooth="yes"/>
      <point x="216.635" y="-133.667"/>
      <point x="55.333" y="23.279"/>
      <point x="55.333" y="254" type="curve" smooth="yes"/>
    </contour>
    <contour>
      <point x="529.333" y="243.333" type="curve" smooth="yes"/>
      <point x="529.333" y="328" type="line" smooth="yes"/>
      <point x="529.333" y="387.049"/>
      <point x="510.939" y="441.667"/>
      <point x="442.667" y="441.667" type="curve" smooth="yes"/>
      <point x="373.718" y="441.667"/>
      <point x="355.667" y="385.598"/>
      <point x="355.667" y="326.333" type="curve" smooth="yes"/>
      <point x="355.667" y="247.667" type="line" smooth="yes"/>
      <point x="355.667" y="187.563"/>
      <point x="371.118" y="128.667"/>
      <point x="442.667" y="128.667" type="curve" smooth="yes"/>
      <point x="511.196" y="128.667"/>
      <point x="529.333" y="184.315"/>
    </contour>
  </outline>
</glyph>
<glyph name="C" format="2">
  <advance width="617"/>
  <unicode hex="0043"/>
  <anchor x="311.667" y="707" name="top"/>
  <outline>
    <contour>
      <point x="62.333" y="265.667" type="curve" smooth="yes"/>
      <point x="62.333" y="441.667" type="line" smooth="yes"/>
      <point x="62.333" y="609.043"/>
      <point x="137.543" y="716.333"/>
      <point x="314" y="716.333" type="curve" smooth="yes"/>
      <point x="454.651" y="716.333"/>
      <point x="559.651" y="637.154"/>
      <point x="559" y="489.667" type="curve"/>
      <point x="464.333" y="489.667" type="line"/>
      <point x="465.1" y="582.632"/>
      <point x="402.661" y="631.667"/>
      <point x="313.667" y="631.667" type="curve" smooth="yes"/>
      <point x="190.292" y="631.667"/>
      <point x="156.667" y="545.967"/>
      <point x="156.667" y="437.333" type="curve" smooth="yes"/>
      <point x="156.667" y="263.667" type="line" smooth="yes"/>
      <point x="156.667" y="156.076"/>
      <point x="196.364" y="77.333"/>
      <point x="315" y="77.333" type="curve" smooth="yes"/>
      <point x="404.68" y="77.333"/>
      <point x="465.077" y="126.251"/>
      <point x="464.333" y="219.333" type="curve"/>
      <point x="557" y="219.333" type="line"/>
      <point x="557" y="214.333" type="line" smooth="yes"/>
      <point x="557" y="67.061"/>
      <point x="452.979" y="-8"/>
      <point x="313.333" y="-8" type="curve" smooth="yes"/>
      <point x="137.574" y="-8"/>
      <point x="62.333" y="98.855"/>
    </contour>
  </outline>
</glyph>
<glyph name="F" format="2">
  <advance width="547"/>
  <unicode hex="0046"/>
  <anchor x="291.667" y="707" name="top"/>
  <outline>
    <contour>
      <point x="169.667" y="622.667" type="line"/>
      <point x="169.667" y="397" type="line"/>
      <point x="461.333" y="397" type="line"/>
      <point x="461.333" y="313.333" type="line"/>
      <point x="169.667" y="313.333" type="line"/>
      <point x="169.667" y="0" type="line"/>
      <point x="74.667" y="0" type="line"/>
      <point x="74.667" y="707" type="line"/>
      <point x="510.333" y="707" type="line"/>
      <point x="510.333" y="622.667" type="line"/>
    </contour>
  </outline>
</glyph>
<glyph name="H" format="2">
  <advance width="637"/>
  <unicode hex="0048"/>
  <anchor x="313.333" y="707" name="top"/>
  <outline>
    <contour>
      <point x="562.333" y="707" type="line"/>
      <point x="562.333" y="0" type="line"/>
      <point x="467.667" y="0" type="line"/>
      <point x="467.667" y="318.333" type="line"/>
      <point x="169.667" y="318.333" type="line"/>
      <point x="169.667" y="0" type="line"/>
      <point x="74.667" y="0" type="line"/>
      <point x="74.667" y="707" type="line"/>
      <point x="169.667" y="707" type="line"/>
      <point x="169.667" y="402" type="line"/>
      <point x="467.667" y="402" type="line"/>
      <point x="467.667" y="707" type="line"/>
    </contour>
  </outline>
</glyph>
<glyph name="J" format="2">
  <advance width="326"/>
  <unicode hex="004A"/>
  <anchor x="197.333" y="707" name="top"/>
  <outline>
    <contour>
      <point x="30.333" y="84.667" type="line"/>
      <point x="100.042" y="84.667"/>
      <point x="149.667" y="72.101"/>
      <point x="149.667" y="158" type="curve" smooth="yes"/>
      <point x="149.667" y="707" type="line"/>
      <point x="244" y="707" type="line"/>
      <point x="244" y="144.667" type="line" smooth="yes"/>
      <point x="244" y="53.695"/>
      <point x="198.337" y="0"/>
      <point x="105" y="0" type="curve" smooth="yes"/>
      <point x="30.333" y="0" type="line"/>
    </contour>
  </outline>
</glyph>
<glyph name="N" format="2">
  <advance width="669"/>
  <unicode hex="004E"/>
  <anchor x="329.667" y="707" name="top"/>
  <outline>
    <contour>
      <point x="594.333" y="707" type="line"/>
      <point x="594.333" y="0" type="line"/>
      <point x="499.667" y="0" type="line"/>
      <point x="169.667" y="526.333" type="line"/>
      <point x="169.667" y="0" type="line"/>
      <point x="74.667" y="0" type="line"/>
      <point x="74.667" y="707" type="line"/>
      <point x="169.667" y="707" type="line"/>
      <point x="499.667" y="180.667" type="line"/>
      <point x="499.667" y="707" type="line"/>
    </contour>
  </outline>
</glyph>
<glyph name="P" format="2">
  <advance width="587"/>
  <unicode hex="0050"/>
  <anchor x="272" y="707" name="top"/>
  <outline>
    <contour>
      <point x="557.333" y="492" type="curve" smooth="yes"/>
      <point x="557.333" y="363.735"/>
      <point x="471.088" y="284"/>
      <point x="332.333" y="284" type="curve" smooth="yes"/>
      <point x="169.667" y="284" type="line"/>
      <point x="169.667" y="0" type="line"/>
      <point x="74.667" y="0" type="line"/>
      <point x="74.667" y="707" type="line"/>
      <point x="332.333" y="707" type="line" smooth="yes"/>
      <point x="469.721" y="707"/>
      <point x="557.333" y="630.493"/>
    </contour>
    <contour>
      <point x="462.667" y="492" type="curve" smooth="yes"/>
      <point x="462.667" y="580.77"/>
      <point x="411.696" y="622.667"/>
      <point x="326" y="622.667" type="curve" smooth="yes"/>
      <point x="169.667" y="622.667" type="line"/>
      <point x="169.667" y="368" type="line"/>
      <point x="326" y="368" type="line" smooth="yes"/>
      <point x="408.103" y="368"/>
      <point x="462.667" y="406.969"/>
    </contour>
  </outline>
</glyph>
<glyph name="Q" format="2">
  <advance width="621"/>
  <unicode hex="0051"/>
  <anchor x="310.667" y="707" name="top"/>
  <outline>
    <contour>
      <point x="62.333" y="265.667" type="curve" smooth="yes"/>
      <point x="62.333" y="441.667" type="line" smooth="yes"/>
      <point x="62.333" y="608.029"/>
      <point x="134.681" y="716.333"/>
      <point x="311.333" y="716.333" type="curve" smooth="yes"/>
      <point x="487.948" y="716.333"/>
      <point x="559" y="606.732"/>
      <point x="559" y="441.667" type="curve" smooth="yes"/>
      <point x="559" y="265.667" type="line" smooth="yes"/>
      <point x="559" y="173.097"/>
      <point x="535.993" y="74.87"/>
      <point x="450.333" y="25.333" type="curve"/>
      <point x="526.667" y="-115" type="line"/>
      <point x="453.667" y="-156" type="line"/>
      <point x="370.667" y="-3" type="line"/>
      <point x="350.455" y="-6.573"/>
      <point x="329.854" y="-8"/>
      <point x="309.333" y="-8" type="curve" smooth="yes"/>
      <point x="133.652" y="-8"/>
      <point x="62.333" y="100.602"/>
    </contour>
    <contour>
      <point x="156.667" y="263.667" type="line" smooth="yes"/>
      <point x="156.667" y="156.787"/>
      <point x="192.226" y="77.333"/>
      <point x="311.333" y="77.333" type="curve" smooth="yes"/>
      <point x="428.7" y="77.333"/>
      <point x="464.333" y="158.432"/>
      <point x="464.333" y="263.667" type="curve" smooth="yes"/>
      <point x="464.333" y="437.333" type="line" smooth="yes"/>
      <point x="464.333" y="542.993"/>
      <point x="431.825" y="631.667"/>
      <point x="311.333" y="631.667" type="curve" smooth="yes"/>
      <point x="186.285" y="631.667"/>
      <point x="156.667" y="546.732"/>
      <point x="156.667" y="437.333" type="curve" smooth="yes"/>
    </contour>
  </outline>
</glyph>
<glyph name="R" format="2">
  <advance width="613"/>
  <unicode hex="0052"/>
  <anchor x="282" y="707" name="top"/>
  <outline>
    <contour>
      <point x="316.333" y="302.333" type="line"/>
      <point x="169.667" y="302.333" type="line"/>
      <point x="169.667" y="0" type="line"/>
      <point x="74.667" y="0" type="line"/>
      <point x="74.667" y="707" type="line"/>
      <point x="339" y="707" type="line" smooth="yes"/>
      <point x="466.244" y="707"/>
      <point x="556.333" y="636.421"/>
      <point x="556.333" y="504" type="curve" smooth="yes"/>
      <point x="556.333" y="409.808"/>
      <point x="505.826" y="338.284"/>
      <point x="414" y="313.667" type="curve"/>
      <point x="576" y="0" type="line"/>
      <point x="467" y="0" type="line"/>
    </contour>
    <contour>
      <point x="169.667" y="382.667" type="line"/>
      <point x="332.667" y="382.667" type="line" smooth="yes"/>
      <point x="410.016" y="382.667"/>
      <point x="461.667" y="422.868"/>
      <point x="461.667" y="503.333" type="curve" smooth="yes"/>
      <point x="461.667" y="583.869"/>
      <point x="409.521" y="622.667"/>
      <point x="332.667" y="622.667" type="curve" smooth="yes"/>
      <point x="169.667" y="622.667" type="line"/>
    </contour>
  </outline>
</glyph>
<glyph name="U" format="2">
  <advance width="640"/>
  <unicode hex="0055"/>
  <anchor x="320.667" y="707" name="top"/>
  <outline>
    <contour>
      <point x="73.3337" y="231" type="curve" smooth="yes"/>
      <point x="73.3337" y="707" type="line"/>
      <point x="169" y="707" type="line"/>
      <point x="169" y="237.333" type="line" smooth="yes"/>
      <point x="169" y="144.18"/>
      <point x="223.979" y="77"/>
      <point x="320.334" y="77" type="curve" smooth="yes"/>
      <point x="415.222" y="77"/>
      <point x="472.334" y="145.328"/>
      <point x="472.334" y="237.333" type="curve" smooth="yes"/>
      <point x="472.334" y="707" type="line"/>
      <point x="566.667" y="707" type="line"/>
      <point x="566.667" y="231" type="line" smooth="yes"/>
      <point x="566.667" y="89.394"/>
      <point x="458.904" y="-6"/>
      <point x="320.334" y="-6" type="curve" smooth="yes"/>
      <point x="183.031" y="-6"/>
      <point x="73.3337" y="90.487"/>
    </contour>
  </outline>
</glyph>
<glyph name="bracketright" format="2">
  <advance width="309"/>
  <unicode hex="005D"/>
  <outline>
    <contour>
      <point x="55.333" y="-1.333" type="line"/>
      <point x="144" y="-1.333" type="line"/>
      <point x="144" y="672.667" type="line"/>
      <point x="55.333" y="672.667" type="line"/>
      <point x="55.333" y="757" type="line"/>
      <point x="234.333" y="757" type="line"/>
      <point x="234.333" y="-86" type="line"/>
      <point x="55.333" y="-86" type="line"/>
    </contour>
  </outline>
</glyph>
<glyph name="grave" format="2">
  <advance width="512"/>
  <unicode hex="0060"/>
  <outline>
    <contour>
      <point x="144.667" y="722" type="line"/>
      <point x="248.667" y="722" type="line"/>
      <point x="353" y="591.333" type="line"/>
      <point x="273" y="591.333" type="line"/>
    </contour>
  </outline>
</glyph>
<glyph name="b" format="2">
  <advance width="524"/>
  <unicode hex="0062"/>
  <anchor x="114" y="707" name="top"/>
  <outline>
    <contour>
      <point x="157" y="62.355" type="curve"/>
      <point x="157" y="0" type="line"/>
      <point x="69.667" y="0" type="line"/>
      <point x="69.667" y="707" type="line"/>
      <point x="158" y="707" type="line"/>
      <point x="158" y="457.305" type="line"/>
      <point x="187.601" y="507.619"/>
      <point x="234.607" y="530.333"/>
      <point x="292.19" y="530.333" type="curve" smooth="yes"/>
      <point x="420.682" y="530.333"/>
      <point x="468.333" y="430.439"/>
      <point x="468.333" y="315.421" type="curve" smooth="yes"/>
      <point x="468.333" y="209.581" type="line" smooth="yes"/>
      <point x="468.333" y="96.297"/>
      <point x="420.316" y="-6"/>
      <point x="293.186" y="-6" type="curve" smooth="yes"/>
      <point x="237.273" y="-6"/>
      <point x="187.794" y="14.224"/>
    </contour>
    <contour>
      <point x="379.333" y="213.587" type="curve" smooth="yes"/>
      <point x="379.333" y="311.081" type="line" smooth="yes"/>
      <point x="379.333" y="383.151"/>
      <point x="356.302" y="451.333"/>
      <point x="272.557" y="451.333" type="curve" smooth="yes"/>
      <point x="188.691" y="451.333"/>
      <point x="157.667" y="381.025"/>
      <point x="157.667" y="307.071" type="curve" smooth="yes"/>
      <point x="157.667" y="214.256" type="line" smooth="yes"/>
      <point x="157.667" y="139.949"/>
      <point x="192.822" y="72.667"/>
      <point x="275.261" y="72.667" type="curve" smooth="yes"/>
      <point x="358.192" y="72.667"/>
      <point x="379.333" y="143.333"/>
    </contour>
  </outline>
</glyph>
<glyph name="c" format="2">
  <advance width="516"/>
  <unicode hex="0063"/>
  <anchor x="262" y="523.333" name="top"/>
  <outline>
    <contour>
      <point x="55.333" y="210.333" type="curve" smooth="yes"/>
      <point x="55.333" y="314" type="line" smooth="yes"/>
      <point x="55.333" y="449.133"/>
      <point x="123.09" y="530.333"/>
      <point x="262" y="530.333" type="curve" smooth="yes"/>
      <point x="379.231" y="530.333"/>
      <point x="460.889" y="467.327"/>
      <point x="460.333" y="345" type="curve"/>
      <point x="374.667" y="345" type="line"/>
      <point x="375.407" y="413.926"/>
      <point x="331.214" y="450.667"/>
      <point x="264.667" y="450.667" type="curve" smooth="yes"/>
      <point x="173.954" y="450.667"/>
      <point x="144" y="393.553"/>
      <point x="144" y="310.667" type="curve" smooth="yes"/>
      <point x="144" y="213.333" type="line" smooth="yes"/>
      <point x="144" y="130.418"/>
      <point x="172.641" y="72.667"/>
      <point x="264" y="72.667" type="curve" smooth="yes"/>
      <point x="330.292" y="72.667"/>
      <point x="375.437" y="107.939"/>
      <point x="374.667" y="177.333" type="curve"/>
      <point x="460.333" y="177.333" type="line"/>
      <point x="460.333" y="172.333" type="line" smooth="yes"/>
      <point x="460.333" y="55.263"/>
      <point x="373.003" y="-6"/>
      <point x="262.667" y="-6" type="curve" smooth="yes"/>
      <point x="122.992" y="-6"/>
      <point x="55.333" y="74.199"/>
    </contour>
  </outline>
</glyph>
<glyph name="h" format="2">
  <advance width="533"/>
  <unicode hex="0068"/>
  <anchor x="113.333" y="707" name="top"/>
  <outline>
    <contour>
      <point x="69.667" y="707" type="line"/>
      <point x="158" y="707" type="line"/>
      <point x="158" y="465.667" type="line"/>
      <point x="189.63" y="508.942"/>
      <point x="239.515" y="529.667"/>
      <point x="292.333" y="529.667" type="curve" smooth="yes"/>
      <point x="407.163" y="529.667"/>
      <point x="464.333" y="452.447"/>
      <point x="464.333" y="343" type="curve" smooth="yes"/>
      <point x="464.333" y="0" type="line"/>
      <point x="375.333" y="0" type="line"/>
      <point x="375.333" y="331.333" type="line" smooth="yes"/>
      <point x="375.333" y="400.709"/>
      <point x="341.402" y="450.667"/>
      <point x="267.667" y="450.667" type="curve" smooth="yes"/>
      <point x="196.121" y="450.667"/>
      <point x="158" y="399.462"/>
      <point x="158" y="331.333" type="curve" smooth="yes"/>
      <point x="158" y="0" type="line"/>
      <point x="69.667" y="0" type="line"/>
    </contour>
  </outline>
</glyph>
<glyph name="l" format="2">
  <advance width="284"/>
  <unicode hex="006C"/>
  <anchor x="113.667" y="707" name="top"/>
  <outline>
    <contour>
      <point x="69.667" y="144.667" type="curve" smooth="yes"/>
      <point x="69.667" y="707" type="line"/>
      <point x="158" y="707" type="line"/>
      <point x="158" y="150" type="line" smooth="yes"/>
      <point x="158" y="84.739"/>
      <point x="200.857" y="78.503"/>
      <point x="261" y="78.667" type="curve"/>
      <point x="261" y="0" type="line"/>
      <point x="209" y="0" type="line" smooth="yes"/>
      <point x="118.231" y="0"/>
      <point x="69.667" y="55.911"/>
    </contour>
  </outline>
</glyph>
<glyph name="m" format="2">
  <advance width="838"/>
  <unicode hex="006D"/>
  <anchor x="425.667" y="523.333" name="top"/>
  <outline>
    <contour>
      <point x="69.667" y="523.333" type="line"/>
      <point x="156.333" y="523.333" type="line"/>
      <point x="156.333" y="465.333" type="line"/>
      <point x="187.548" y="508.073"/>
      <point x="240.208" y="529.667"/>
      <point x="292.333" y="529.667" type="curve" smooth="yes"/>
      <point x="355.135" y="529.667"/>
      <point x="406.044" y="505.213"/>
      <point x="437" y="449.333" type="curve"/>
      <point x="473.468" y="503.238"/>
      <point x="527.785" y="529.667"/>
      <point x="592.667" y="529.667" type="curve" smooth="yes"/>
      <point x="708.524" y="529.667"/>
      <point x="769.333" y="455.166"/>
      <point x="769.333" y="343" type="curve" smooth="yes"/>
      <point x="769.333" y="0" type="line"/>
      <point x="680.333" y="0" type="line"/>
      <point x="680.333" y="331.333" type="line" smooth="yes"/>
      <point x="680.333" y="400.127"/>
      <point x="647.641" y="450.667"/>
      <point x="574" y="450.667" type="curve" smooth="yes"/>
      <point x="502.257" y="450.667"/>
      <point x="464.333" y="403.629"/>
      <point x="464.333" y="334.333" type="curve" smooth="yes"/>
      <point x="464.333" y="0" type="line"/>
      <point x="374.667" y="0" type="line"/>
      <point x="374.667" y="331.333" type="line" smooth="yes"/>
      <point x="374.667" y="400.694"/>
      <point x="341.648" y="450.667"/>
      <point x="267.667" y="450.667" type="curve" smooth="yes"/>
      <point x="195.947" y="450.667"/>
      <point x="158" y="399.625"/>
      <point x="158" y="331.333" type="curve" smooth="yes"/>
      <point x="158" y="0" type="line"/>
      <point x="69.667" y="0" type="line"/>
    </contour>
  </outline>
</glyph>
<glyph name="p" format="2">
  <advance width="524"/>
  <unicode hex="0070"/>
  <anchor x="270" y="523.333" name="top"/>
  <outline>
    <contour>
      <point x="69.667" y="523.333" type="line"/>
      <point x="157" y="523.333" type="line"/>
      <point x="157" y="456.667" type="line"/>
      <point x="185.69" y="504.427"/>
      <point x="232.783" y="529.667"/>
      <point x="288.333" y="529.667" type="curve" smooth="yes"/>
      <point x="418.527" y="529.667"/>
      <point x="468.333" y="432.485"/>
      <point x="468.333" y="315" type="curve" smooth="yes"/>
      <point x="468.333" y="209.333" type="line" smooth="yes"/>
      <point x="468.333" y="95.061"/>
      <point x="421.696" y="-6"/>
      <point x="293" y="-6" type="curve" smooth="yes"/>
      <point x="237.521" y="-6"/>
      <point x="188.518" y="14.171"/>
      <point x="158" y="62" type="curve"/>
      <point x="158" y="-157.333" type="line"/>
      <point x="69.667" y="-157.333" type="line"/>
    </contour>
    <contour>
      <point x="379.333" y="213.333" type="curve" smooth="yes"/>
      <point x="379.333" y="310" type="line" smooth="yes"/>
      <point x="379.333" y="383.446"/>
      <point x="356.528" y="450.667"/>
      <point x="271" y="450.667" type="curve" smooth="yes"/>
      <point x="187.364" y="450.667"/>
      <point x="157.667" y="379.644"/>
      <point x="157.667" y="306.667" type="curve" smooth="yes"/>
      <point x="157.667" y="214" type="line" smooth="yes"/>
      <point x="157.667" y="140.064"/>
      <point x="192.281" y="72.667"/>
      <point x="274.667" y="72.667" type="curve" smooth="yes"/>
      <point x="358.76" y="72.667"/>
      <point x="379.333" y="142.405"/>
    </contour>
  </outline>
</glyph>
<glyph name="q" format="2">
  <advance width="524"/>
  <unicode hex="0071"/>
  <anchor x="244" y="523.333" name="top"/>
  <outline>
    <contour>
      <point x="365.667" y="62" type="line"/>
      <point x="334.82" y="13.723"/>
      <point x="287.547" y="-6"/>
      <point x="231.333" y="-6" type="curve" smooth="yes"/>
      <point x="102.615" y="-6"/>
      <point x="55.333" y="95.57"/>
      <point x="55.333" y="209.333" type="curve" smooth="yes"/>
      <point x="55.333" y="315" type="line" smooth="yes"/>
      <point x="55.333" y="431.778"/>
      <point x="105.647" y="529.667"/>
      <point x="235.667" y="529.667" type="curve" smooth="yes"/>
      <point x="292.281" y="529.667"/>
      <point x="337.343" y="505.374"/>
      <point x="366.333" y="456.667" type="curve"/>
      <point x="366.333" y="523.333" type="line"/>
      <point x="454.333" y="523.333" type="line"/>
      <point x="454.333" y="-157.333" type="line"/>
      <point x="365.667" y="-157.333" type="line"/>
    </contour>
    <contour>
      <point x="365.667" y="214" type="curve" smooth="yes"/>
      <point x="365.667" y="306.667" type="line" smooth="yes"/>
      <point x="365.667" y="379.78"/>
      <point x="336.687" y="450.667"/>
      <point x="252.667" y="450.667" type="curve" smooth="yes"/>
      <point x="167.656" y="450.667"/>
      <point x="145" y="383.663"/>
      <point x="145" y="310" type="curve" smooth="yes"/>
      <point x="145" y="213.333" type="line" smooth="yes"/>
      <point x="145" y="142.262"/>
      <point x="165.505" y="72.667"/>
      <point x="249" y="72.667" type="curve" smooth="yes"/>
      <point x="333.632" y="72.667"/>
      <point x="365.667" y="138.245"/>
    </contour>
  </outline>
</glyph>
<glyph name="t" format="2">
  <advance width="352"/>
  <unicode hex="0074"/>
  <anchor x="154.667" y="674.333" name="top"/>
  <outline>
    <contour>
      <point x="199" y="457" type="line"/>
      <point x="199" y="142" type="line" smooth="yes"/>
      <point x="199" y="80.44"/>
      <point x="248.641" y="76.142"/>
      <point x="301.667" y="76.667" type="curve"/>
      <point x="301.667" y="0" type="line"/>
      <point x="247" y="0" type="line" smooth="yes"/>
      <point x="161.83" y="0"/>
      <point x="110.333" y="52.429"/>
      <point x="110.333" y="137.333" type="curve" smooth="yes"/>
      <point x="110.333" y="457" type="line"/>
      <point x="32" y="457" type="line"/>
      <point x="32" y="523.333" type="line"/>
      <point x="110.333" y="523.333" type="line"/>
      <point x="110.333" y="637.667" type="line"/>
      <point x="199" y="674.333" type="line"/>
      <point x="199" y="523.333" type="line"/>
      <point x="311.333" y="523.333" type="line"/>
      <point x="311.333" y="457" type="line"/>
    </contour>
  </outline>
</glyph>
<glyph name="u" format="2">
  <advance width="533"/>
  <unicode hex="0075"/>
  <anchor x="266.333" y="523.333" name="top"/>
  <outline>
    <contour>
      <point x="69.667" y="198.333" type="curve" smooth="yes"/>
      <point x="69.667" y="523.333" type="line"/>
      <point x="158" y="523.333" type="line"/>
      <point x="158" y="207" type="line" smooth="yes"/>
      <point x="158" y="132.125"/>
      <point x="181.628" y="72.667"/>
      <point x="266.667" y="72.667" type="curve" smooth="yes"/>
      <point x="353.033" y="72.667"/>
      <point x="375.333" y="131.061"/>
      <point x="375.333" y="207" type="curve" smooth="yes"/>
      <point x="375.333" y="523.333" type="line"/>
      <point x="464.333" y="523.333" type="line"/>
      <point x="464.333" y="198.333" type="line" smooth="yes"/>
      <point x="464.333" y="68.187"/>
      <point x="398.535" y="-6"/>
      <point x="266" y="-6" type="curve" smooth="yes"/>
      <point x="134.008" y="-6"/>
      <point x="69.667" y="69.495"/>
    </contour>
  </outline>
</glyph>
<glyph name="v" format="2">
  <advance width="463"/>
  <unicode hex="0076"/>
  <anchor x="232.333" y="523.333" name="top"/>
  <outline>
    <contour>
      <point x="12.333" y="523.333" type="line"/>
      <point x="107.667" y="523.333" type="line"/>
      <point x="232.333" y="133" type="line"/>
      <point x="356.333" y="523.333" type="line"/>
      <point x="451" y="523.333" type="line"/>
      <point x="270" y="0" type="line"/>
      <point x="194" y="0" type="line"/>
    </contour>
  </outline>
</glyph>
<glyph name="y" format="2">
  <advance width="464"/>
  <unicode hex="0079"/>
  <anchor x="224.667" y="523.333" name="top"/>
  <outline>
    <contour>
      <point x="451.333" y="523.333" type="line"/>
      <point x="251.667" y="-52.667" type="line" smooth="yes"/>
      <point x="220.156" y="-143.549"/>
      <point x="164.911" y="-156.677"/>
      <point x="76.438" y="-156.677" type="curve"/>
      <point x="72" y="-156.667" type="line"/>
      <point x="72" y="-76" type="line"/>
      <point x="86.505" y="-76.121" type="line"/>
      <point x="158.042" y="-76.121"/>
      <point x="171.958" y="-57.698"/>
      <point x="191.667" y="8" type="curve"/>
      <point x="12.333" y="523.333" type="line"/>
      <point x="107.667" y="523.333" type="line"/>
      <point x="233.333" y="136.667" type="line"/>
      <point x="359.333" y="523.333" type="line"/>
    </contour>
  </outline>
</glyph>
<glyph name="braceright" format="2">
  <advance width="355"/>
  <unicode hex="007D"/>
  <outline>
    <contour>
      <point x="55.333" y="-10.667" type="line"/>
      <point x="99.955" y="-10.667"/>
      <point x="137.333" y="-17.179"/>
      <point x="137.333" y="39.667" type="curve" smooth="yes"/>
      <point x="137.333" y="214" type="line" smooth="yes"/>
      <point x="137.333" y="270.425"/>
      <point x="143.601" y="316.889"/>
      <point x="203" y="338" type="curve"/>
      <point x="143.168" y="358.466"/>
      <point x="137.333" y="406.469"/>
      <point x="137.333" y="462.667" type="curve" smooth="yes"/>
      <point x="137.333" y="632" type="line" smooth="yes"/>
      <point x="137.333" y="688.953"/>
      <point x="99.918" y="681.667"/>
      <point x="55.333" y="681.667" type="curve"/>
      <point x="55.333" y="758" type="line"/>
      <point x="114.333" y="758" type="line" smooth="yes"/>
      <point x="190.49" y="758"/>
      <point x="225.667" y="714.974"/>
      <point x="225.667" y="641" type="curve" smooth="yes"/>
      <point x="225.667" y="461.333" type="line" smooth="yes"/>
      <point x="225.667" y="407.038"/>
      <point x="242.536" y="380.088"/>
      <point x="299.667" y="378.667" type="curve"/>
      <point x="299.667" y="298" type="line"/>
      <point x="242.536" y="296.579"/>
      <point x="225.667" y="269.629"/>
      <point x="225.667" y="215.333" type="curve" smooth="yes"/>
      <point x="225.667" y="31.333" type="line" smooth="yes"/>
      <point x="225.667" y="-42.806"/>
      <point x="190.78" y="-86"/>
      <point x="114.333" y="-86" type="curve" smooth="yes"/>
      <point x="55.333" y="-86" type="line"/>
    </contour>
  </outline>
</glyph>
<glyph name="cent" format="2">
  <advance width="530"/>
  <unicode hex="00A2"/>
  <outline>
    <contour>
      <point x="55.333" y="210.333" type="curve" smooth="yes"/>
      <point x="55.333" y="314" type="line" smooth="yes"/>
      <point x="55.333" y="433.97"/>
      <point x="107.055" y="518.158"/>
      <point x="233" y="529" type="curve"/>
      <point x="233" y="631.333" type="line"/>
      <point x="293" y="631.333" type="line"/>
      <point x="293" y="528.333" type="line"/>
      <point x="400.084" y="517.841"/>
      <point x="460.333" y="453.051"/>
      <point x="460.333" y="345" type="curve"/>
      <point x="374.667" y="345" type="line"/>
      <point x="374.667" y="417.218"/>
      <point x="331.485" y="450.987"/>
      <point x="261.624" y="450.987" type="curve" smooth="yes"/>
      <point x="172.673" y="450.987"/>
      <point x="144" y="390.375"/>
      <point x="144" y="310.667" type="curve" smooth="yes"/>
      <point x="144" y="213.333" type="line" smooth="yes"/>
      <point x="144" y="133.261"/>
      <point x="171.087" y="72.287"/>
      <point x="261.261" y="72.287" type="curve" smooth="yes"/>
      <point x="330.215" y="72.287"/>
      <point x="374.667" y="105.542"/>
      <point x="374.667" y="177.333" type="curve"/>
      <point x="460.333" y="177.333" type="line"/>
      <point x="460.333" y="172.333" type="line" smooth="yes"/>
      <point x="460.333" y="69.436"/>
      <point x="392.62" y="5.752"/>
      <point x="293" y="-4" type="curve"/>
      <point x="293" y="-102" type="line"/>
      <point x="233" y="-102" type="line"/>
      <point x="233" y="-4" type="line"/>
      <point x="107.992" y="6.867"/>
      <point x="55.333" y="91.027"/>
    </contour>
  </outline>
</glyph>
<glyph name="dieresis" format="2">
  <advance width="512"/>
  <unicode hex="00A8"/>
  <outline>
    <contour>
      <point x="120" y="693.333" type="line"/>
      <point x="208.667" y="693.333" type="line"/>
      <point x="208.667" y="595" type="line"/>
      <point x="120" y="595" type="line"/>
    </contour>
    <contour>
      <point x="302.333" y="693.333" type="line"/>
      <point x="391" y="693.333" type="line"/>
      <point x="391" y="595" type="line"/>
      <point x="302.333" y="595" type="line"/>
    </contour>
  </outline>
</glyph>
<glyph name="ordfeminine" format="2">
  <advance width="345"/>
  <unicode hex="00AA"/>
  <outline>
    <contour>
      <point x="291.667" y="653.667" type="curve" smooth="yes"/>
      <point x="291.667" y="440" type="line"/>
      <point x="219.667" y="440" type="line"/>
      <point x="219.667" y="470" type="line"/>
      <point x="197.165" y="445.125"/>
      <point x="174.893" y="436"/>
      <point x="141.333" y="436" type="curve" smooth="yes"/>
      <point x="77.041" y="436"/>
      <point x="36.333" y="471.716"/>
      <point x="36.333" y="537.333" type="curve" smooth="yes"/>
      <point x="36.333" y="640.304"/>
      <point x="146.784" y="630"/>
      <point x="217.333" y="630" type="curve"/>
      <point x="217.333" y="657.333" type="line" smooth="yes"/>
      <point x="217.333" y="690.98"/>
      <point x="197.623" y="709.333"/>
      <point x="164.333" y="709.333" type="curve" smooth="yes"/>
      <point x="136.777" y="709.333"/>
      <point x="113.667" y="696.582"/>
      <point x="113.667" y="666.333" type="curve"/>
      <point x="44.667" y="666.333" type="line"/>
      <point x="44.667" y="668.333" type="line" smooth="yes"/>
      <point x="44.667" y="738.081"/>
      <point x="102.618" y="766"/>
      <point x="164.667" y="766" type="curve" smooth="yes"/>
      <point x="239.027" y="766"/>
      <point x="291.667" y="733.546"/>
    </contour>
    <contour>
      <point x="217.333" y="554.333" type="curve" smooth="yes"/>
      <point x="217.333" y="578.667" type="line"/>
      <point x="159" y="578.667" type="line" smooth="yes"/>
      <point x="131.889" y="578.667"/>
      <point x="107.667" y="570.093"/>
      <point x="107.667" y="539" type="curve" smooth="yes"/>
      <point x="107.667" y="508.143"/>
      <point x="130.081" y="497"/>
      <point x="158" y="497" type="curve" smooth="yes"/>
      <point x="197.451" y="497"/>
      <point x="217.333" y="514.132"/>
    </contour>
  </outline>
</glyph>
<glyph name="guillemotleft" format="2">
  <advance width="505"/>
  <unicode hex="00AB"/>
  <outline>
    <contour>
      <point x="23.333" y="270" type="line"/>
      <point x="233.333" y="483" type="line"/>
      <point x="233.333" y="381.667" type="line"/>
      <point x="124.333" y="270" type="line"/>
      <point x="233.333" y="159.333" type="line"/>
      <point x="233.333" y="58" type="line"/>
    </contour>
    <contour>
      <point x="225.333" y="270" type="line"/>
      <point x="436" y="483" type="line"/>
      <point x="436" y="381.667" type="line"/>
      <point x="326" y="270" type="line"/>
      <point x="436" y="159.333" type="line"/>
      <point x="436" y="58" type="line"/>
    </contour>
  </outline>
</glyph>
<glyph name="logicalnot" format="2">
  <advance width="530"/>
  <unicode hex="00AC"/>
  <outline>
    <contour>
      <point x="385.333" y="266.667" type="line"/>
      <point x="55" y="266.667" type="line"/>
      <point x="55" y="347.333" type="line"/>
      <point x="474.333" y="347.333" type="line"/>
      <point x="474.333" y="129.667" type="line"/>
      <point x="385.333" y="129.667" type="line"/>
    </contour>
  </outline>
</glyph>
<glyph name="registered" format="2">
  <advance width="506"/>
  <unicode hex="00AE"/>
  <outline>
    <contour>
      <point x="60" y="510.667" type="curve" smooth="yes"/>
      <point x="60" y="620.248"/>
      <point x="141.577" y="706.667"/>
      <point x="252.333" y="706.667" type="curve" smooth="yes"/>
      <point x="364.223" y="706.667"/>
      <point x="446" y="621.782"/>
      <point x="446" y="510.667" type="curve" smooth="yes"/>
      <point x="446" y="399.032"/>
      <point x="365.093" y="313.667"/>
      <point x="252.333" y="313.667" type="curve" smooth="yes"/>
      <point x="141.079" y="313.667"/>
      <point x="60" y="400.872"/>
    </contour>
    <contour>
      <point x="408.667" y="510.667" type="curve" smooth="yes"/>
      <point x="408.667" y="602.654"/>
      <point x="345.985" y="671.667"/>
      <point x="252.333" y="671.667" type="curve" smooth="yes"/>
      <point x="158.064" y="671.667"/>
      <point x="97.667" y="602.638"/>
      <point x="97.667" y="510.667" type="curve" smooth="yes"/>
      <point x="97.667" y="418.72"/>
      <point x="157.759" y="348.667"/>
      <point x="252.333" y="348.667" type="curve" smooth="yes"/>
      <point x="346.39" y="348.667"/>
      <point x="408.667" y="418.628"/>
    </contour>
    <contour>
      <point x="178.667" y="621.333" type="line"/>
      <point x="264.667" y="621.333" type="line" smooth="yes"/>
      <point x="307.229" y="621.333"/>
      <point x="338.333" y="600.695"/>
      <point x="338.333" y="555.333" type="curve" smooth="yes"/>
      <point x="338.333" y="526.287"/>
      <point x="326.048" y="506.188"/>
      <point x="299" y="495" type="curve"/>
      <point x="344" y="402" type="line"/>
      <point x="298.333" y="402" type="line"/>
      <point x="257" y="489.333" type="line"/>
      <point x="221" y="489.333" type="line"/>
      <point x="221" y="402" type="line"/>
      <point x="178.667" y="402" type="line"/>
    </contour>
    <contour>
      <point x="263" y="525.667" type="line" smooth="yes"/>
      <point x="282.859" y="525.667"/>
      <point x="297.333" y="533.398"/>
      <point x="297.333" y="555" type="curve" smooth="yes"/>
      <point x="297.333" y="576.602"/>
      <point x="282.859" y="584.333"/>
      <point x="263" y="584.333" type="curve" smooth="yes"/>
      <point x="221" y="584.333" type="line"/>
      <point x="221" y="525.667" type="line"/>
    </contour>
  </outline>
</glyph>
<glyph name="acute" format="2">
  <advance width="512"/>
  <unicode hex="00B4"/>
  <outline>
    <contour>
      <point x="263" y="722" type="line"/>
      <point x="367" y="722" type="line"/>
      <point x="238.667" y="591.333" type="line"/>
      <point x="158.667" y="591.333" type="line"/>
    </contour>
  </outline>
</glyph>
<glyph name="paragraph" format="2">
  <advance width="638"/>
  <unicode hex="00B6"/>
  <outline>
    <contour>
      <point x="270" y="272.333" type="line"/>
      <point x="150.215" y="280.799"/>
      <point x="74.667" y="371.622"/>
      <point x="74.667" y="489.667" type="curve" smooth="yes"/>
      <point x="74.667" y="622.727"/>
      <point x="170.132" y="707"/>
      <point x="300.333" y="707" type="curve" smooth="yes"/>
      <point x="526" y="707" type="line"/>
      <point x="526" y="-157.333" type="line"/>
      <point x="443.667" y="-157.333" type="line"/>
      <point x="443.667" y="628" type="line"/>
      <point x="353.667" y="628" type="line"/>
      <point x="353.667" y="-157.333" type="line"/>
      <point x="270" y="-157.333" type="line"/>
    </contour>
  </outline>
</glyph>
<glyph name="guillemotright" format="2">
  <advance width="505"/>
  <unicode hex="00BB"/>
  <outline>
    <contour>
      <point x="69.667" y="159.333" type="line"/>
      <point x="180" y="270" type="line"/>
      <point x="69.667" y="381.667" type="line"/>
      <point x="69.667" y="483" type="line"/>
      <point x="280" y="270" type="line"/>
      <point x="69.667" y="58" type="line"/>
    </contour>
    <contour>
      <point x="271.333" y="159.333" type="line"/>
      <point x="381.667" y="270" type="line"/>
      <point x="271.333" y="381.667" type="line"/>
      <point x="271.333" y="483" type="line"/>
      <point x="482.333" y="270" type="line"/>
      <point x="271.333" y="58" type="line"/>
    </contour>
  </outline>
</glyph>
<glyph name="onehalf" format="2">
  <advance width="765"/>
  <unicode hex="00BD"/>
  <outline>
    <contour>
      <point x="100.333" y="618.667" type="line"/>
      <point x="28" y="564.333" type="line"/>
      <point x="28" y="652.333" type="line"/>
      <point x="100.667" y="707" type="line"/>
      <point x="183" y="707" type="line"/>
      <point x="183" y="279.333" type="line"/>
      <point x="100.333" y="279.333" type="line"/>
    </contour>
    <contour>
      <point x="473.667" y="62.667" type="line"/>
      <point x="615" y="249.667" type="line" smooth="yes"/>
      <point x="631.569" y="271.646"/>
      <point x="639.333" y="290.405"/>
      <point x="639.333" y="318" type="curve" smooth="yes"/>
      <point x="639.333" y="346.393"/>
      <point x="623.836" y="367.333"/>
      <point x="594" y="367.333" type="curve" smooth="yes"/>
      <point x="555.107" y="367.333"/>
      <point x="549" y="334.274"/>
      <point x="549" y="303" type="curve"/>
      <point x="470.667" y="303" type="line"/>
      <point x="470.667" y="318" type="line" smooth="yes"/>
      <point x="470.667" y="393.627"/>
      <point x="524.757" y="434.667"/>
      <point x="597" y="434.667" type="curve" smooth="yes"/>
      <point x="675.715" y="434.667"/>
      <point x="721.667" y="387.565"/>
      <point x="721.667" y="310" type="curve" smooth="yes"/>
      <point x="721.667" y="268.425"/>
      <point x="705.378" y="241.664"/>
      <point x="681.333" y="209.667" type="curve" smooth="yes"/>
      <point x="577.333" y="70.333" type="line"/>
      <point x="722.333" y="70.333" type="line"/>
      <point x="722.333" y="0" type="line"/>
      <point x="473.667" y="0" type="line"/>
    </contour>
    <contour>
      <point x="487.333" y="708.667" type="line"/>
      <point x="564.333" y="708.667" type="line"/>
      <point x="178" y="0" type="line"/>
      <point x="101.333" y="0" type="line"/>
    </contour>
  </outline>
</glyph>
<glyph name="questiondown" format="2">
  <advance width="446"/>
  <unicode hex="00BF"/>
  <outline>
    <contour>
      <point x="177.667" y="523.333" type="line"/>
      <point x="282.667" y="523.333" type="line"/>
      <point x="282.667" y="415.667" type="line"/>
      <point x="177.667" y="415.667" type="line"/>
    </contour>
    <contour>
      <point x="43.667" y="6.333" type="curve" smooth="yes"/>
      <point x="43.667" y="92.876"/>
      <point x="94.956" y="147.491"/>
      <point x="149" y="208" type="curve" smooth="yes"/>
      <point x="176.48" y="238.798"/>
      <point x="183.456" y="261.99"/>
      <point x="183.456" y="309.904" type="curve" smooth="yes"/>
      <point x="183.456" y="337" type="line"/>
      <point x="275.667" y="337" type="line"/>
      <point x="275.667" y="299.333" type="line" smooth="yes"/>
      <point x="275.667" y="153.077"/>
      <point x="137.333" y="127.17"/>
      <point x="137.333" y="8.667" type="curve" smooth="yes"/>
      <point x="137.333" y="-50.561"/>
      <point x="171.397" y="-83.667"/>
      <point x="230.333" y="-83.667" type="curve" smooth="yes"/>
      <point x="295.886" y="-83.667"/>
      <point x="320.739" y="-43.49"/>
      <point x="321.333" y="17.667" type="curve"/>
      <point x="412" y="17.667" type="line"/>
      <point x="412" y="-100.658"/>
      <point x="346.955" y="-167.333"/>
      <point x="227.333" y="-167.333" type="curve" smooth="yes"/>
      <point x="121.871" y="-167.333"/>
      <point x="43.667" y="-102.475"/>
    </contour>
  </outline>
</glyph>
<glyph name="Ccedilla" format="2">
  <advance width="621"/>
  <unicode hex="00C7"/>
  <outline>
    <contour>
      <point x="464.333" y="489.667" type="line"/>
      <point x="464.333" y="583.66"/>
      <point x="404.691" y="631.667"/>
      <point x="313.667" y="631.667" type="curve" smooth="yes"/>
      <point x="189.62" y="631.667"/>
      <point x="156.667" y="546.519"/>
      <point x="156.667" y="437.333" type="curve" smooth="yes"/>
      <point x="156.667" y="263.667" type="line" smooth="yes"/>
      <point x="156.667" y="155.148"/>
      <point x="196.002" y="77.333"/>
      <point x="315" y="77.333" type="curve" smooth="yes"/>
      <point x="406.811" y="77.333"/>
      <point x="464.333" y="125.353"/>
      <point x="464.333" y="219.333" type="curve"/>
      <point x="557" y="219.333" type="line"/>
      <point x="557" y="214.333" type="line" smooth="yes"/>
      <point x="557" y="95.641"/>
      <point x="489.641" y="17.596"/>
      <point x="373.333" y="-3.333" type="curve"/>
      <point x="324.333" y="-156" type="line"/>
      <point x="236.667" y="-156" type="line"/>
      <point x="294.667" y="-7.667" type="line"/>
      <point x="127.664" y="0.173"/>
      <point x="62.333" y="109.515"/>
      <point x="62.333" y="265.667" type="curve" smooth="yes"/>
      <point x="62.333" y="441.667" type="line" smooth="yes"/>
      <point x="62.333" y="609.723"/>
      <point x="136.762" y="716.333"/>
      <point x="314" y="716.333" type="curve" smooth="yes"/>
      <point x="456.24" y="716.333"/>
      <point x="559" y="637.866"/>
      <point x="559" y="489.667" type="curve"/>
    </contour>
  </outline>
</glyph>
<glyph name="Igrave" format="2">
  <advance width="258"/>
  <unicode hex="00CC"/>
  <outline>
    <contour>
      <point x="82.3333" y="707" type="line"/>
      <point x="177" y="707" type="line"/>
      <point x="177" y="0" type="line"/>
      <point x="82.3333" y="0" type="line"/>
    </contour>
    <contour>
      <point x="-10.333" y="904.667" type="line"/>
      <point x="93.667" y="904.667" type="line"/>
      <point x="198" y="774" type="line"/>
      <point x="118.667" y="774" type="line"/>
    </contour>
  </outline>
</glyph>
<glyph name="Iacute" format="2">
  <advance width="258"/>
  <unicode hex="00CD"/>
  <outline>
    <contour>
      <point x="82.3333" y="707" type="line"/>
      <point x="177" y="707" type="line"/>
      <point x="177" y="0" type="line"/>
      <point x="82.3333" y="0" type="line"/>
    </contour>
    <contour>
      <point x="151.334" y="904.667" type="line"/>
      <point x="255.667" y="904.667" type="line"/>
      <point x="126.334" y="774" type="line"/>
      <point x="46.6667" y="774" type="line"/>
    </contour>
  </outline>
</glyph>
<glyph name="Icircumflex" format="2">
  <advance width="258"/>
  <unicode hex="00CE"/>
  <outline>
    <contour>
      <point x="82.3333" y="707" type="line"/>
      <point x="177" y="707" type="line"/>
      <point x="177" y="0" type="line"/>
      <point x="82.3333" y="0" type="line"/>
    </contour>
    <contour>
      <point x="94.6667" y="913.333" type="line"/>
      <point x="163.667" y="913.333" type="line"/>
      <point x="275.667" y="763.333" type="line"/>
      <point x="200.667" y="763.333" type="line"/>
      <point x="129.667" y="855.333" type="line"/>
      <point x="57.9997" y="763.333" type="line"/>
      <point x="-17.3333" y="763.333" type="line"/>
    </contour>
  </outline>
</glyph>
<glyph name="multiply" format="2">
  <advance width="530"/>
  <unicode hex="00D7"/>
  <outline>
    <contour>
      <point x="84.333" y="158.333" type="line"/>
      <point x="209" y="283.667" type="line"/>
      <point x="84.333" y="408.667" type="line"/>
      <point x="140" y="464.333" type="line"/>
      <point x="265" y="339.667" type="line"/>
      <point x="389.667" y="464.333" type="line"/>
      <point x="446.333" y="408" type="line"/>
      <point x="321.667" y="283.667" type="line"/>
      <point x="446.333" y="158.333" type="line"/>
      <point x="389.667" y="102" type="line"/>
      <point x="265" y="227" type="line"/>
      <point x="140" y="102" type="line"/>
    </contour>
  </outline>
</glyph>
<glyph name="Oslash" format="2">
  <advance width="621"/>
  <unicode hex="00D8"/>
  <outline>
    <contour>
      <point x="505" y="635.333" type="line"/>
      <point x="547.774" y="581.428"/>
      <point x="559" y="508.601"/>
      <point x="559" y="441.667" type="curve" smooth="yes"/>
      <point x="559" y="265.667" type="line" smooth="yes"/>
      <point x="559" y="100.594"/>
      <point x="484.507" y="-8"/>
      <point x="309.333" y="-8" type="curve" smooth="yes"/>
      <point x="256.074" y="-8"/>
      <point x="201.791" y="2.259"/>
      <point x="157.333" y="33" type="curve"/>
      <point x="126.333" y="-20" type="line"/>
      <point x="62.333" y="-20" type="line"/>
      <point x="115.667" y="72.333" type="line"/>
      <point x="73.408" y="126.579"/>
      <point x="62.333" y="198.709"/>
      <point x="62.333" y="265.667" type="curve" smooth="yes"/>
      <point x="62.333" y="441.667" type="line" smooth="yes"/>
      <point x="62.333" y="608.127"/>
      <point x="134.646" y="716.333"/>
      <point x="311.333" y="716.333" type="curve" smooth="yes"/>
      <point x="364.69" y="716.333"/>
      <point x="419.464" y="705.769"/>
      <point x="464" y="675" type="curve"/>
      <point x="495.333" y="728.667" type="line"/>
      <point x="559" y="728.667" type="line"/>
    </contour>
    <contour>
      <point x="172" y="168.667" type="curve"/>
      <point x="417" y="594" type="line"/>
      <point x="389.542" y="622.593"/>
      <point x="349.758" y="631.667"/>
      <point x="311.333" y="631.667" type="curve" smooth="yes"/>
      <point x="186.273" y="631.667"/>
      <point x="156.667" y="546.713"/>
      <point x="156.667" y="437.333" type="curve" smooth="yes"/>
      <point x="156.667" y="263.667" type="line" smooth="yes"/>
      <point x="156.667" y="231.742"/>
      <point x="159.433" y="198.233"/>
    </contour>
    <contour>
      <point x="449.333" y="538.667" type="curve"/>
      <point x="204" y="113" type="line"/>
      <point x="232.487" y="85.695"/>
      <point x="273.051" y="77.333"/>
      <point x="311.333" y="77.333" type="curve" smooth="yes"/>
      <point x="428.756" y="77.333"/>
      <point x="464.333" y="158.519"/>
      <point x="464.333" y="263.667" type="curve" smooth="yes"/>
      <point x="464.333" y="437.333" type="line" smooth="yes"/>
      <point x="464.333" y="471.376"/>
      <point x="461.414" y="506.744"/>
    </contour>
  </outline>
</glyph>
<glyph name="eth" format="2">
  <advance width="512"/>
  <unicode hex="00F0"/>
  <outline>
    <contour>
      <point x="456.333" y="219" type="curve" smooth="yes"/>
      <point x="456.333" y="86.02"/>
      <point x="398.755" y="-9.667"/>
      <point x="255" y="-9.667" type="curve" smooth="yes"/>
      <point x="116.596" y="-9.667"/>
      <point x="55.333" y="82.778"/>
      <point x="55.333" y="212.667" type="curve" smooth="yes"/>
      <point x="55.333" y="265" type="line" smooth="yes"/>
      <point x="55.333" y="379.67"/>
      <point x="103.92" y="482"/>
      <point x="232.667" y="482" type="curve" smooth="yes"/>
      <point x="256.917" y="482"/>
      <point x="281.721" y="478.938"/>
      <point x="303.667" y="468" type="curve"/>
      <point x="237" y="560.667" type="line"/>
      <point x="132" y="529" type="line"/>
      <point x="113.333" y="592.667" type="line"/>
      <point x="196.333" y="617.667" type="line"/>
      <point x="131.667" y="708.667" type="line"/>
      <point x="231.333" y="708.667" type="line"/>
      <point x="278.667" y="643" type="line"/>
      <point x="379.333" y="674" type="line"/>
      <point x="398" y="609.667" type="line"/>
      <point x="319.667" y="586.333" type="line"/>
      <point x="424.877" y="440.89"/>
      <point x="456.333" y="400.68"/>
    </contour>
    <contour>
      <point x="370" y="265.667" type="line" smooth="yes"/>
      <point x="370" y="342.805"/>
      <point x="343.477" y="405.333"/>
      <point x="257" y="405.333" type="curve" smooth="yes"/>
      <point x="170.5" y="405.333"/>
      <point x="141.333" y="346.373"/>
      <point x="141.333" y="267.667" type="curve" smooth="yes"/>
      <point x="141.333" y="213.333" type="line" smooth="yes"/>
      <point x="141.333" y="134.312"/>
      <point x="168.612" y="71"/>
      <point x="257" y="71" type="curve" smooth="yes"/>
      <point x="344.242" y="71"/>
      <point x="370" y="135.869"/>
      <point x="370" y="213" type="curve" smooth="yes"/>
    </contour>
  </outline>
</glyph>
<glyph name="thorn" format="2">
  <advance width="524"/>
  <unicode hex="00FE"/>
  <outline>
    <contour>
      <point x="69.667" y="707" type="line"/>
      <point x="158" y="707" type="line"/>
      <point x="158" y="456.667" type="line"/>
      <point x="186.825" y="505.651"/>
      <point x="231.681" y="530.333"/>
      <point x="288.333" y="530.333" type="curve" smooth="yes"/>
      <point x="419.588" y="530.333"/>
      <point x="468.333" y="432.42"/>
      <point x="468.333" y="315" type="curve" smooth="yes"/>
      <point x="468.333" y="209.333" type="line" smooth="yes"/>
      <point x="468.333" y="96.219"/>
      <point x="421.246" y="-6"/>
      <point x="293" y="-6" type="curve" smooth="yes"/>
      <point x="236.623" y="-6"/>
      <point x="188.07" y="13.904"/>
      <point x="157" y="62.333" type="curve"/>
      <point x="157" y="-157.333" type="line"/>
      <point x="69.667" y="-157.333" type="line"/>
    </contour>
    <contour>
      <point x="379.333" y="213.333" type="curve" smooth="yes"/>
      <point x="379.333" y="310.667" type="line" smooth="yes"/>
      <point x="379.333" y="384.551"/>
      <point x="356.115" y="450.667"/>
      <point x="271" y="450.667" type="curve" smooth="yes"/>
      <point x="187.13" y="450.667"/>
      <point x="157.667" y="379.705"/>
      <point x="157.667" y="306.667" type="curve" smooth="yes"/>
      <point x="157.667" y="214" type="line" smooth="yes"/>
      <point x="157.667" y="139.925"/>
      <point x="192.186" y="72.667"/>
      <point x="274.667" y="72.667" type="curve" smooth="yes"/>
      <point x="358.55" y="72.667"/>
      <point x="379.333" y="141.694"/>
    </contour>
  </outline>
</glyph>
<glyph name="gcommaaccent" format="2">
  <advance width="524"/>
  <unicode hex="0123"/>
  <outline>
    <component base="g"/>
    <contour>
      <point x="290.333" y="570.667" type="line"/>
      <point x="214.333" y="570.667" type="line"/>
      <point x="214.333" y="638.667" type="line"/>
      <point x="290.333" y="707" type="line"/>
    </contour>
  </outline>
</glyph>
<glyph name="hbar" format="2">
  <advance width="533"/>
  <unicode hex="0127"/>
  <outline>
    <component base="h"/>
    <contour>
      <point x="10" y="643.667" type="line"/>
      <point x="292" y="643.667" type="line"/>
      <point x="292" y="583" type="line"/>
      <point x="10" y="583" type="line"/>
    </contour>
  </outline>
</glyph>
<glyph name="dotlessi" format="2">
  <advance width="241"/>
  <unicode hex="0131"/>
  <outline>
    <contour>
      <point x="76.667" y="523.333" type="line"/>
      <point x="165.333" y="523.333" type="line"/>
      <point x="165.333" y="0" type="line"/>
      <point x="76.667" y="0" type="line"/>
    </contour>
  </outline>
</glyph>
<glyph name="ij" format="2">
  <advance width="498"/>
  <unicode hex="0133"/>
  <outline>
    <contour>
      <point x="72.333" y="707" type="line"/>
      <point x="160.667" y="707" type="line"/>
      <point x="160.667" y="611.667" type="line"/>
      <point x="72.333" y="611.667" type="line"/>
    </contour>
    <contour>
      <point x="340" y="707" type="line"/>
      <point x="428.667" y="707" type="line"/>
      <point x="428.667" y="611" type="line"/>
      <point x="340" y="611" type="line"/>
    </contour>
    <contour>
      <point x="69.667" y="251" type="curve" smooth="yes"/>
      <point x="69.667" y="523.333" type="line"/>
      <point x="159.333" y="523.333" type="line"/>
      <point x="159.333" y="255" type="line" smooth="yes"/>
      <point x="159.333" y="188.267"/>
      <point x="176.268" y="123.333"/>
      <point x="246.667" y="123.333" type="curve" smooth="yes"/>
      <point x="313.618" y="123.333"/>
      <point x="340" y="188.004"/>
      <point x="340" y="255.667" type="curve" smooth="yes"/>
      <point x="340" y="523.333" type="line"/>
      <point x="428.667" y="523.333" type="line"/>
      <point x="428.667" y="40.333" type="line" smooth="yes"/>
      <point x="428.667" y="-72.866"/>
      <point x="369.142" y="-164"/>
      <point x="255.333" y="-164" type="curve" smooth="yes"/>
      <point x="166.321" y="-164"/>
      <point x="84.908" y="-118.274"/>
      <point x="78.667" y="-21.667" type="curve"/>
      <point x="165.333" y="-21.667" type="line"/>
      <point x="170.862" y="-61.36"/>
      <point x="211.824" y="-90"/>
      <point x="250.333" y="-90" type="curve" smooth="yes"/>
      <point x="322.122" y="-90"/>
      <point x="340.683" y="-27.956"/>
      <point x="340.676" y="33.199" type="curve" smooth="yes"/>
      <point x="340.667" y="104" type="line"/>
      <point x="321.638" y="66.52"/>
      <point x="280.185" y="38.333"/>
      <point x="234.523" y="38.333" type="curve" smooth="yes"/>
      <point x="113.447" y="38.333"/>
      <point x="69.667" y="144.932"/>
    </contour>
  </outline>
</glyph>
<glyph name="lslash" format="2">
  <advance width="284"/>
  <unicode hex="0142"/>
  <outline>
    <component base="l"/>
    <contour>
      <point x="11.333" y="326.667" type="line"/>
      <point x="12" y="403" type="line"/>
      <point x="233.333" y="495.333" type="line"/>
      <point x="233.333" y="418.667" type="line"/>
    </contour>
  </outline>
</glyph>
<glyph name="eng" format="2">
  <advance width="533"/>
  <unicode hex="014B"/>
  <outline>
    <contour>
      <point x="69.667" y="523.333" type="line"/>
      <point x="156.333" y="523.333" type="line"/>
      <point x="156.333" y="465.333" type="line"/>
      <point x="188.427" y="510.198"/>
      <point x="238.275" y="529.667"/>
      <point x="292.333" y="529.667" type="curve" smooth="yes"/>
      <point x="407.514" y="529.667"/>
      <point x="465" y="453.177"/>
      <point x="465" y="343" type="curve" smooth="yes"/>
      <point x="465" y="0" type="line"/>
      <point x="375.333" y="0" type="line"/>
      <point x="375.333" y="331.333" type="line" smooth="yes"/>
      <point x="375.333" y="400.486"/>
      <point x="341.38" y="450.667"/>
      <point x="267.667" y="450.667" type="curve" smooth="yes"/>
      <point x="195.707" y="450.667"/>
      <point x="158" y="399.719"/>
      <point x="158" y="331.333" type="curve" smooth="yes"/>
      <point x="158" y="0" type="line"/>
      <point x="69.667" y="0" type="line"/>
    </contour>
    <contour>
      <point x="326.333" y="-173" type="curve" smooth="yes"/>
      <point x="274.333" y="-173" type="line"/>
      <point x="274.333" y="-94.333" type="line"/>
      <point x="349.625" y="-94.333"/>
      <point x="375.369" y="-75.609"/>
      <point x="375.333" y="0" type="curve"/>
      <point x="465" y="0" type="line"/>
      <point x="465.018" y="-113.863"/>
      <point x="423.339" y="-173"/>
    </contour>
  </outline>
</glyph>
<glyph name="oe" format="2">
  <advance width="838"/>
  <unicode hex="0153"/>
  <outline>
    <contour>
      <point x="55.333" y="210.333" type="curve" smooth="yes"/>
      <point x="55.333" y="314" type="line" smooth="yes"/>
      <point x="55.333" y="448.093"/>
      <point x="121.674" y="530.333"/>
      <point x="260.667" y="530.333" type="curve" smooth="yes"/>
      <point x="322.806" y="530.333"/>
      <point x="382.496" y="513.197"/>
      <point x="421" y="462" type="curve"/>
      <point x="458.631" y="511.16"/>
      <point x="518.595" y="530.333"/>
      <point x="579" y="530.333" type="curve" smooth="yes"/>
      <point x="721.919" y="530.333"/>
      <point x="782.667" y="438.191"/>
      <point x="782.667" y="304.333" type="curve" smooth="yes"/>
      <point x="782.667" y="240" type="line"/>
      <point x="463.333" y="240" type="line"/>
      <point x="463.333" y="214.667" type="line" smooth="yes"/>
      <point x="463.333" y="129.304"/>
      <point x="493.836" y="71.667"/>
      <point x="587.333" y="71.667" type="curve" smooth="yes"/>
      <point x="642.877" y="71.667"/>
      <point x="694.096" y="100.178"/>
      <point x="694" y="162.333" type="curve"/>
      <point x="778.667" y="162.333" type="line"/>
      <point x="778.667" y="157.333" type="line" smooth="yes"/>
      <point x="778.667" y="41.912"/>
      <point x="685.588" y="-6"/>
      <point x="582" y="-6" type="curve" smooth="yes"/>
      <point x="519.562" y="-6"/>
      <point x="460.199" y="12.021"/>
      <point x="421" y="62.667" type="curve"/>
      <point x="383.113" y="11.26"/>
      <point x="322.521" y="-6"/>
      <point x="260.667" y="-6" type="curve" smooth="yes"/>
      <point x="121.287" y="-6"/>
      <point x="55.333" y="75.788"/>
    </contour>
    <contour>
      <point x="144" y="213.333" type="line" smooth="yes"/>
      <point x="144" y="133.388"/>
      <point x="171.272" y="72.667"/>
      <point x="260.667" y="72.667" type="curve" smooth="yes"/>
      <point x="349.623" y="72.667"/>
      <point x="374.667" y="134.898"/>
      <point x="374.667" y="213.333" type="curve" smooth="yes"/>
      <point x="374.667" y="310.667" type="line" smooth="yes"/>
      <point x="374.667" y="389.764"/>
      <point x="349.959" y="450.667"/>
      <point x="260.667" y="450.667" type="curve" smooth="yes"/>
      <point x="170.946" y="450.667"/>
      <point x="144" y="391.278"/>
      <point x="144" y="310.667" type="curve" smooth="yes"/>
    </contour>
    <contour>
      <point x="463.333" y="303.667" type="curve"/>
      <point x="694" y="303.667" type="line"/>
      <point x="694" y="320.333" type="line" smooth="yes"/>
      <point x="694" y="398.75"/>
      <point x="665.218" y="452"/>
      <point x="579.667" y="452" type="curve" smooth="yes"/>
      <point x="482.599" y="452"/>
      <point x="463.333" y="387.069"/>
    </contour>
  </outline>
</glyph>
<glyph name="Scaron" format="2">
  <advance width="560"/>
  <unicode hex="0160"/>
  <outline>
    <contour>
      <point x="31.333" y="205" type="curve"/>
      <point x="123" y="205" type="line"/>
      <point x="133.291" y="112.821"/>
      <point x="186.644" y="75.667"/>
      <point x="276.667" y="75.667" type="curve" smooth="yes"/>
      <point x="356.973" y="75.667"/>
      <point x="423" y="104.229"/>
      <point x="423" y="194.667" type="curve" smooth="yes"/>
      <point x="423" y="406.39"/>
      <point x="45.667" y="227.499"/>
      <point x="45.667" y="513.333" type="curve" smooth="yes"/>
      <point x="45.667" y="649.882"/>
      <point x="149.419" y="716.333"/>
      <point x="276.333" y="716.333" type="curve" smooth="yes"/>
      <point x="408.495" y="716.333"/>
      <point x="491.143" y="647.026"/>
      <point x="505" y="514.667" type="curve"/>
      <point x="412.667" y="514.667" type="line"/>
      <point x="405.848" y="598.873"/>
      <point x="356.783" y="635.333"/>
      <point x="274.667" y="635.333" type="curve" smooth="yes"/>
      <point x="199.96" y="635.333"/>
      <point x="137.667" y="602.577"/>
      <point x="137.667" y="520" type="curve" smooth="yes"/>
      <point x="137.667" y="322.612"/>
      <point x="516.333" y="490.832"/>
      <point x="516.333" y="201.667" type="curve" smooth="yes"/>
      <point x="516.333" y="54.556"/>
      <point x="404.592" y="-6"/>
      <point x="271" y="-6" type="curve" smooth="yes"/>
      <point x="130.847" y="-6"/>
      <point x="43.014" y="61.44"/>
    </contour>
    <contour>
      <point x="132" y="911.333" type="line"/>
      <point x="208" y="911.333" type="line"/>
      <point x="279.667" y="820.333" type="line"/>
      <point x="349.667" y="911.333" type="line"/>
      <point x="425.333" y="911.333" type="line"/>
      <point x="313" y="762" type="line"/>
      <point x="244.333" y="762" type="line"/>
    </contour>
  </outline>
</glyph>
<glyph name="Uogonek" format="2">
  <advance width="643"/>
  <unicode hex="0172"/>
  <outline>
    <component base="U" xOffset="1.333"/>
    <contour>
      <point x="253" y="-96" type="curve"/>
      <point x="371" y="10.333" type="line"/>
      <point x="482.967" y="51.667" type="line"/>
      <point x="333" y="-102" type="line"/>
      <point x="361.733" y="-138.679"/>
      <point x="394.322" y="-143.479"/>
      <point x="441.667" y="-143.333" type="curve"/>
      <point x="441.667" y="-214.333" type="line"/>
      <point x="356.768" y="-214.333"/>
      <point x="282.073" y="-181.658"/>
    </contour>
  </outline>
</glyph>
<glyph name="uogonek" format="2">
  <advance width="533"/>
  <unicode hex="0173"/>
  <outline>
    <component base="u"/>
    <contour>
      <point x="183" y="-96" type="curve"/>
      <point x="301.667" y="17" type="line"/>
      <point x="402.086" y="39" type="line"/>
      <point x="263" y="-102" type="line"/>
      <point x="287.962" y="-133.46"/>
      <point x="324.322" y="-143.479"/>
      <point x="371.667" y="-143.333" type="curve"/>
      <point x="371.667" y="-214.333" type="line"/>
      <point x="286.768" y="-214.333"/>
      <point x="212.073" y="-181.658"/>
    </contour>
  </outline>
</glyph>
<glyph name="Zcaron" format="2">
  <advance width="524"/>
  <unicode hex="017D"/>
  <outline>
    <contour>
      <point x="491" y="84.667" type="line"/>
      <point x="491" y="0" type="line"/>
      <point x="37.667" y="0" type="line"/>
      <point x="37.667" y="84.667" type="line"/>
      <point x="380.333" y="622.667" type="line"/>
      <point x="48.333" y="622.667" type="line"/>
      <point x="48.333" y="707" type="line"/>
      <point x="485.333" y="707" type="line"/>
      <point x="485.333" y="622.667" type="line"/>
      <point x="143" y="84.667" type="line"/>
    </contour>
    <contour>
      <point x="115" y="911.333" type="line"/>
      <point x="190.667" y="911.333" type="line"/>
      <point x="262" y="820.333" type="line"/>
      <point x="333" y="911.333" type="line"/>
      <point x="408" y="911.333" type="line"/>
      <point x="296" y="762" type="line"/>
      <point x="227.667" y="762" type="line"/>
    </contour>
  </outline>
</glyph>
<glyph name="Ocenteredtilde" format="2">
  <advance width="621"/>
  <unicode hex="019F"/>
  <outline>
    <contour>
      <point x="135.667" y="397" type="line"/>
      <point x="484.334" y="397" type="line"/>
      <point x="484.334" y="313" type="line"/>
      <point x="135.667" y="313" type="line"/>
    </contour>
    <contour>
      <point x="62.333" y="265.446" type="curve" smooth="yes"/>
      <point x="62.333" y="441.225" type="line" smooth="yes"/>
      <point x="62.333" y="619.634"/>
      <point x="149.854" y="716.333"/>
      <point x="311.333" y="716.333" type="curve" smooth="yes"/>
      <point x="471.895" y="716.333"/>
      <point x="559" y="619.577"/>
      <point x="559" y="441.225" type="curve" smooth="yes"/>
      <point x="559" y="265.446" type="line" smooth="yes"/>
      <point x="559" y="89.214"/>
      <point x="470.251" y="-8"/>
      <point x="309.333" y="-8" type="curve" smooth="yes"/>
      <point x="149.059" y="-8"/>
      <point x="62.333" y="88.011"/>
    </contour>
    <contour>
      <point x="464.333" y="263.444" type="curve" smooth="yes"/>
      <point x="464.333" y="436.901" type="line" smooth="yes"/>
      <point x="464.333" y="564.616"/>
      <point x="410.762" y="631"/>
      <point x="307.83" y="631" type="curve" smooth="yes"/>
      <point x="206.144" y="631"/>
      <point x="156.667" y="567.504"/>
      <point x="156.667" y="436.901" type="curve" smooth="yes"/>
      <point x="156.667" y="263.444" type="line" smooth="yes"/>
      <point x="156.667" y="140.427"/>
      <point x="208.915" y="77.333"/>
      <point x="310.549" y="77.333" type="curve" smooth="yes"/>
      <point x="411.582" y="77.333"/>
      <point x="464.333" y="141.162"/>
    </contour>
  </outline>
</glyph>
<glyph name="Oogonek" format="2">
  <advance width="621"/>
  <unicode hex="01EA"/>
  <outline>
    <component base="O"/>
    <contour>
      <point x="267.333" y="4.333" type="line"/>
      <point x="341.463" y="4.333" type="line"/>
      <point x="229.333" y="-108" type="line"/>
      <point x="256.493" y="-143.412"/>
      <point x="293.46" y="-149.59"/>
      <point x="338" y="-149.333" type="curve"/>
      <point x="338" y="-220.333" type="line"/>
      <point x="253.866" y="-219.926"/>
      <point x="177.883" y="-186.653"/>
      <point x="149.333" y="-102" type="curve"/>
    </contour>
  </outline>
</glyph>
<glyph name="oogonek" format="2">
  <advance width="519"/>
  <unicode hex="01EB"/>
  <outline>
    <component base="o"/>
    <contour>
      <point x="265" y="11.667" type="line"/>
      <point x="339.101" y="11.667" type="line"/>
      <point x="227" y="-100.667" type="line"/>
      <point x="255.41" y="-137.864"/>
      <point x="291.509" y="-142.374"/>
      <point x="335.667" y="-142" type="curve"/>
      <point x="335.667" y="-213" type="line"/>
      <point x="251.891" y="-212.226"/>
      <point x="175.382" y="-178.948"/>
      <point x="147" y="-94.667" type="curve"/>
    </contour>
  </outline>
</glyph>
<glyph name="dotaccent" format="2">
  <advance width="512"/>
  <unicode hex="02D9"/>
  <outline>
    <contour>
      <point x="209.667" y="701.333" type="line"/>
      <point x="303.667" y="701.333" type="line"/>
      <point x="303.667" y="606" type="line"/>
      <point x="209.667" y="606" type="line"/>
    </contour>
  </outline>
</glyph>
<glyph name="ring" format="2">
  <advance width="512"/>
  <unicode hex="02DA"/>
  <outline>
    <contour>
      <point x="158" y="676" type="curve" smooth="yes"/>
      <point x="158" y="731.987"/>
      <point x="199.025" y="774.333"/>
      <point x="255.333" y="774.333" type="curve" smooth="yes"/>
      <point x="311.971" y="774.333"/>
      <point x="352.333" y="732.205"/>
      <point x="352.333" y="676" type="curve" smooth="yes"/>
      <point x="352.333" y="620.105"/>
      <point x="311.445" y="578.333"/>
      <point x="255.333" y="578.333" type="curve" smooth="yes"/>
      <point x="199.535" y="578.333"/>
      <point x="158" y="620.313"/>
    </contour>
    <contour>
      <point x="306.667" y="676" type="curve" smooth="yes"/>
      <point x="306.667" y="705.188"/>
      <point x="285.141" y="729.333"/>
      <point x="255.333" y="729.333" type="curve" smooth="yes"/>
      <point x="225.163" y="729.333"/>
      <point x="204.333" y="705.424"/>
      <point x="204.333" y="676" type="curve" smooth="yes"/>
      <point x="204.333" y="647.594"/>
      <point x="226.329" y="623"/>
      <point x="255.333" y="623" type="curve" smooth="yes"/>
      <point x="284.462" y="623"/>
      <point x="306.667" y="647.378"/>
    </contour>
  </outline>
</glyph>
<glyph name="tilde" format="2">
  <advance width="512"/>
  <unicode hex="02DC"/>
  <outline>
    <contour>
      <point x="123" y="659.333" type="line"/>
      <point x="144.456" y="682.973"/>
      <point x="164.421" y="700"/>
      <point x="198" y="700" type="curve" smooth="yes"/>
      <point x="248.845" y="700"/>
      <point x="274.838" y="660.333"/>
      <point x="317" y="660.333" type="curve" smooth="yes"/>
      <point x="348.166" y="660.333"/>
      <point x="367.359" y="680.011"/>
      <point x="388" y="700.667" type="curve"/>
      <point x="388" y="628.333" type="line"/>
      <point x="367.502" y="606.18"/>
      <point x="344.547" y="588.333"/>
      <point x="313" y="588.333" type="curve" smooth="yes"/>
      <point x="264.399" y="588.333"/>
      <point x="233.784" y="627.333"/>
      <point x="195" y="627.333" type="curve" smooth="yes"/>
      <point x="163.555" y="627.333"/>
      <point x="143.838" y="608.256"/>
      <point x="123" y="587.333" type="curve"/>
    </contour>
  </outline>
</glyph>
<glyph name="gravecomb" format="2">
  <unicode hex="0300"/>
  <anchor x="0" y="523.333" name="_top"/>
  <outline>
    <contour>
      <point x="-140.333" y="722" type="line"/>
      <point x="-36.333" y="722" type="line"/>
      <point x="68" y="591.333" type="line"/>
      <point x="-11.333" y="591.333" type="line"/>
    </contour>
  </outline>
</glyph>
<glyph name="acutecomb" format="2">
  <unicode hex="0301"/>
  <anchor x="0" y="523.333" name="_top"/>
  <outline>
    <contour>
      <point x="21.667" y="722" type="line"/>
      <point x="126" y="722" type="line"/>
      <point x="-3.333" y="591.333" type="line"/>
      <point x="-83" y="591.333" type="line"/>
    </contour>
  </outline>
</glyph>
<glyph name="tildecomb" format="2">
  <unicode hex="0303"/>
  <anchor x="0" y="523.333" name="_top"/>
  <outline>
    <contour>
      <point x="-133" y="659.333" type="line"/>
      <point x="-113.552" y="681.269"/>
      <point x="-88.593" y="700"/>
      <point x="-58" y="700" type="curve" smooth="yes"/>
      <point x="-12.793" y="700"/>
      <point x="18.716" y="660.333"/>
      <point x="61" y="660.333" type="curve" smooth="yes"/>
      <point x="90.039" y="660.333"/>
      <point x="113.031" y="681.029"/>
      <point x="132" y="700.667" type="curve"/>
      <point x="132" y="628.333" type="line"/>
      <point x="112.517" y="606.873"/>
      <point x="87.201" y="588.333"/>
      <point x="57" y="588.333" type="curve" smooth="yes"/>
      <point x="12.073" y="588.333"/>
      <point x="-20.061" y="627.333"/>
      <point x="-61" y="627.333" type="curve" smooth="yes"/>
      <point x="-90.181" y="627.333"/>
      <point x="-113.832" y="607.144"/>
      <point x="-133" y="587.333" type="curve"/>
    </contour>
  </outline>
</glyph>
<glyph name="brevecmb" format="2">
  <unicode hex="0306"/>
  <anchor x="0" y="523.333" name="_top"/>
  <outline>
    <contour>
      <point x="0" y="571.333" type="curve" smooth="yes"/>
      <point x="-93.187" y="571.333"/>
      <point x="-135.301" y="626.91"/>
      <point x="-135.301" y="714.335" type="curve" smooth="yes"/>
      <point x="-135.301" y="731" type="line"/>
      <point x="-64.991" y="731" type="line"/>
      <point x="-64.999" y="725.671" type="line"/>
      <point x="-64.999" y="678.809"/>
      <point x="-57.94" y="635.333"/>
      <point x="0" y="635.333" type="curve" smooth="yes"/>
      <point x="58.184" y="635.333"/>
      <point x="64.995" y="679.284"/>
      <point x="64.995" y="725.667" type="curve" smooth="yes"/>
      <point x="64.995" y="731" type="line"/>
      <point x="135.333" y="731" type="line"/>
      <point x="135.333" y="714.333" type="line" smooth="yes"/>
      <point x="135.333" y="626.291"/>
      <point x="90.993" y="571.333"/>
    </contour>
  </outline>
</glyph>
<glyph name="dotaccentcmb" format="2">
  <unicode hex="0307"/>
  <outline>
    <contour>
      <point x="-46.333" y="701.333" type="line"/>
      <point x="47.667" y="701.333" type="line"/>
      <point x="47.667" y="606" type="line"/>
      <point x="-46.333" y="606" type="line"/>
    </contour>
  </outline>
</glyph>
<glyph name="ringcmb" format="2">
  <unicode hex="030A"/>
  <anchor x="0" y="523.333" name="_top"/>
  <outline>
    <contour>
      <point x="-97" y="676" type="curve" smooth="yes"/>
      <point x="-97" y="732.131"/>
      <point x="-56.562" y="774.333"/>
      <point x="0" y="774.333" type="curve" smooth="yes"/>
      <point x="56.637" y="774.333"/>
      <point x="97" y="732.205"/>
      <point x="97" y="676" type="curve" smooth="yes"/>
      <point x="97" y="620.105"/>
      <point x="56.111" y="578.333"/>
      <point x="0" y="578.333" type="curve" smooth="yes"/>
      <point x="-56.037" y="578.333"/>
      <point x="-97" y="620.179"/>
    </contour>
    <contour>
      <point x="51.333" y="676" type="curve" smooth="yes"/>
      <point x="51.333" y="705.188"/>
      <point x="29.808" y="729.333"/>
      <point x="0" y="729.333" type="curve" smooth="yes"/>
      <point x="-30.17" y="729.333"/>
      <point x="-51" y="705.424"/>
      <point x="-51" y="676" type="curve" smooth="yes"/>
      <point x="-51" y="647.594"/>
      <point x="-29.005" y="623"/>
      <point x="0" y="623" type="curve" smooth="yes"/>
      <point x="29.128" y="623"/>
      <point x="51.333" y="647.378"/>
    </contour>
  </outline>
</glyph>
<glyph name="caroncmb" format="2">
  <unicode hex="030C"/>
  <outline>
    <contour>
      <point x="-147" y="728.667" type="line"/>
      <point x="-71.667" y="728.667" type="line"/>
      <point x="0" y="637.333" type="line"/>
      <point x="71" y="728.667" type="line"/>
      <point x="146" y="728.667" type="line"/>
      <point x="34" y="579.333" type="line"/>
      <point x="-35" y="579.333" type="line"/>
    </contour>
  </outline>
</glyph>
<glyph name="commaaccentcomb" format="2">
  <unicode hex="0326"/>
  <outline>
    <contour>
      <point x="-38" y="-36.667" type="line"/>
      <point x="38" y="-36.667" type="line"/>
      <point x="38" y="-104.667" type="line"/>
      <point x="-38" y="-173" type="line"/>
    </contour>
  </outline>
</glyph>
<glyph name="ogonekcmb" format="2">
  <unicode hex="0328"/>
  <outline>
    <contour>
      <point x="-8" y="4.333" type="line"/>
      <point x="62.678" y="4.333" type="line"/>
      <point x="62.678" y="-1.37" type="line"/>
      <point x="-46" y="-108" type="line"/>
      <point x="-16.776" y="-145.009"/>
      <point x="15.596" y="-149.542"/>
      <point x="62.667" y="-149.333" type="curve"/>
      <point x="62.667" y="-220.333" type="line"/>
      <point x="-22.516" y="-220.333"/>
      <point x="-96.898" y="-187.73"/>
      <point x="-126" y="-102" type="curve"/>
    </contour>
  </outline>
</glyph>
<glyph name="Djecyr" format="2">
  <advance width="616"/>
  <unicode hex="0402"/>
  <anchor x="307" y="707" name="top"/>
  <outline>
    <contour>
      <point x="350.836" y="79.433" type="line"/>
      <point x="419.699" y="79.433"/>
      <point x="464.169" y="92.805"/>
      <point x="464.169" y="150.767" type="curve" smooth="yes"/>
      <point x="464.169" y="260.775" type="line"/>
      <point x="553.169" y="260.775" type="line"/>
      <point x="553.169" y="145.433" type="line" smooth="yes"/>
      <point x="553.169" y="54.511"/>
      <point x="504.598" y="0.1"/>
      <point x="406.217" y="0.1" type="curve" smooth="yes"/>
      <point x="350.836" y="0.1" type="line"/>
    </contour>
    <contour>
      <point x="438.147" y="622.667" type="line"/>
      <point x="216.667" y="622.667" type="line"/>
      <point x="216.667" y="0" type="line"/>
      <point x="122" y="0" type="line"/>
      <point x="122" y="622.667" type="line"/>
      <point x="7.333" y="622.667" type="line"/>
      <point x="7.333" y="707" type="line"/>
      <point x="438.147" y="707" type="line"/>
    </contour>
    <contour>
      <point x="222.794" y="455.667" type="line"/>
      <point x="259.703" y="498.942"/>
      <point x="317.781" y="519.667"/>
      <point x="372.958" y="519.667" type="curve" smooth="yes"/>
      <point x="493.248" y="519.667"/>
      <point x="553.064" y="442.447"/>
      <point x="553.064" y="333" type="curve" smooth="yes"/>
      <point x="553.064" y="167.197" type="line"/>
      <point x="464.064" y="167.197" type="line"/>
      <point x="464.064" y="321.333" type="line" smooth="yes"/>
      <point x="464.064" y="390.709"/>
      <point x="427.787" y="440.667"/>
      <point x="348.808" y="440.667" type="curve" smooth="yes"/>
      <point x="272.227" y="440.667"/>
      <point x="216.73" y="389.462"/>
      <point x="216.73" y="321.333" type="curve"/>
      <point x="180.317" y="321.335" type="line"/>
      <point x="180.349" y="455.893" type="line"/>
    </contour>
  </outline>
</glyph>
<glyph name="Eukrcyr" format="2">
  <advance width="617"/>
  <unicode hex="0404"/>
  <anchor x="308" y="707" name="top"/>
  <outline>
    <component base="C"/>
    <contour>
      <point x="130" y="401.642" type="line"/>
      <point x="370.227" y="401.642" type="line"/>
      <point x="370.227" y="317.976" type="line"/>
      <point x="130" y="317.976" type="line"/>
    </contour>
  </outline>
</glyph>
<glyph name="Dzhecyr" format="2">
  <advance width="620"/>
  <unicode hex="040F"/>
  <outline>
    <contour>
      <point x="75.1377" y="-0.125" type="line"/>
      <point x="75.1377" y="83.54" type="line"/>
      <point x="545.291" y="83.54" type="line"/>
      <point x="545.291" y="-0.125" type="line"/>
    </contour>
    <contour>
      <point x="263.077" y="-169.94" type="line"/>
      <point x="263.077" y="83.756" type="line"/>
      <point x="357.743" y="83.757" type="line"/>
      <point x="357.743" y="-169.94" type="line"/>
    </contour>
    <contour>
      <point x="450.667" y="0" type="line"/>
      <point x="450.667" y="707" type="line"/>
      <point x="545.334" y="707" type="line"/>
      <point x="545.334" y="0" type="line"/>
    </contour>
    <contour>
      <point x="75.1685" y="0" type="line"/>
      <point x="75.1685" y="707" type="line"/>
      <point x="169.836" y="707" type="line"/>
      <point x="169.836" y="0" type="line"/>
    </contour>
  </outline>
</glyph>
<glyph name="Decyr" format="2">
  <advance width="715"/>
  <unicode hex="0414"/>
  <outline>
    <contour>
      <point x="567.41" y="-169.94" type="line"/>
      <point x="567.41" y="83.756" type="line"/>
      <point x="662.076" y="83.757" type="line"/>
      <point x="662.076" y="-169.94" type="line"/>
    </contour>
    <contour>
      <point x="14.874" y="-169.94" type="line"/>
      <point x="14.874" y="83.648" type="line"/>
      <point x="109.541" y="83.648" type="line"/>
      <point x="109.541" y="-169.94" type="line"/>
    </contour>
    <contour>
      <point x="40.471" y="-0.125" type="line"/>
      <point x="40.471" y="83.54" type="line"/>
      <point x="582.381" y="83.54" type="line"/>
      <point x="582.381" y="-0.125" type="line"/>
    </contour>
    <contour>
      <point x="491" y="0" type="line"/>
      <point x="491" y="707" type="line"/>
      <point x="585.667" y="707" type="line"/>
      <point x="585.667" y="0" type="line"/>
    </contour>
    <contour>
      <point x="211.333" y="623.333" type="line"/>
      <point x="211.333" y="707" type="line"/>
      <point x="539.333" y="707" type="line"/>
      <point x="539.333" y="623.333" type="line"/>
    </contour>
    <contour>
      <point x="55.66" y="83.603" type="line"/>
      <point x="109.059" y="83.648"/>
      <point x="152.913" y="239.52"/>
      <point x="168.287" y="545.021" type="curve" smooth="yes"/>
      <point x="177" y="707" type="line"/>
      <point x="271.667" y="707" type="line"/>
      <point x="263.22" y="543.364" type="line"/>
      <point x="248.195" y="213.556"/>
      <point x="171.548" y="0"/>
      <point x="55.533" y="0" type="curve"/>
    </contour>
  </outline>
</glyph>
<glyph name="Zecyr" format="2">
  <advance width="605"/>
  <unicode hex="0417"/>
  <outline>
    <contour>
      <point x="543.333" y="193" type="curve" smooth="yes"/>
      <point x="543.333" y="60.422"/>
      <point x="432.519" y="-8"/>
      <point x="302.669" y="-8" type="curve" smooth="yes"/>
      <point x="160.059" y="-8"/>
      <point x="64.674" y="71.623"/>
      <point x="63.123" y="192.228" type="curve"/>
      <point x="158.123" y="192.333" type="line"/>
      <point x="158.123" y="121.251"/>
      <point x="216.064" y="75.667"/>
      <point x="300.914" y="75.667" type="curve" smooth="yes"/>
      <point x="383.556" y="75.667"/>
      <point x="448.667" y="116.134"/>
      <point x="448.667" y="199.333" type="curve" smooth="yes"/>
      <point x="448.667" y="281.339"/>
      <point x="392.403" y="319"/>
      <point x="311.818" y="319" type="curve" smooth="yes"/>
      <point x="215.457" y="319" type="line"/>
      <point x="215.457" y="402" type="line"/>
      <point x="305.12" y="402" type="line" smooth="yes"/>
      <point x="381.288" y="402"/>
      <point x="438" y="436.807"/>
      <point x="438" y="515.333" type="curve" smooth="yes"/>
      <point x="438" y="594.357"/>
      <point x="377.321" y="632.667"/>
      <point x="299.443" y="632.667" type="curve" smooth="yes"/>
      <point x="215.514" y="632.667"/>
      <point x="158.123" y="586.962"/>
      <point x="158.123" y="515.847" type="curve"/>
      <point x="63.123" y="515.849" type="line"/>
      <point x="63.2" y="638.315"/>
      <point x="156.986" y="716.333"/>
      <point x="304.189" y="716.333" type="curve" smooth="yes"/>
      <point x="430.519" y="716.333"/>
      <point x="533" y="651.099"/>
      <point x="533" y="520.667" type="curve" smooth="yes"/>
      <point x="533" y="451.955"/>
      <point x="495.637" y="388.283"/>
      <point x="430.667" y="364" type="curve"/>
      <point x="506.552" y="338.182"/>
      <point x="543.333" y="271.216"/>
    </contour>
  </outline>
</glyph>
<glyph name="Kacyr" format="2">
  <advance width="616"/>
  <unicode hex="041A"/>
  <anchor x="296" y="707" name="top"/>
  <outline>
    <contour>
      <point x="160.15" y="328.985" type="line"/>
      <point x="160.15" y="375.843" type="line"/>
      <point x="211.626" y="375.793" type="line"/>
      <point x="468.333" y="707" type="line"/>
      <point x="581.333" y="707" type="line"/>
      <point x="276.88" y="328.948" type="line"/>
    </contour>
    <contour>
      <point x="254.655" y="327.086" type="line"/>
      <point x="315.173" y="402" type="line"/>
      <point x="608.667" y="0" type="line"/>
      <point x="499" y="0" type="line"/>
    </contour>
    <contour>
      <point x="315.173" y="318.333" type="line"/>
      <point x="169.667" y="318.333" type="line"/>
      <point x="169.667" y="0" type="line"/>
      <point x="74.667" y="0" type="line"/>
      <point x="74.667" y="707" type="line"/>
      <point x="169.667" y="707" type="line"/>
      <point x="169.667" y="402" type="line"/>
      <point x="315.173" y="402" type="line"/>
    </contour>
  </outline>
</glyph>
<glyph name="Pecyr" format="2">
  <advance width="628"/>
  <unicode hex="041F"/>
  <outline>
    <contour>
      <point x="553.667" y="707" type="line"/>
      <point x="553.667" y="0" type="line"/>
      <point x="459" y="0" type="line"/>
      <point x="459" y="623.631" type="line"/>
      <point x="169.667" y="623.631" type="line"/>
      <point x="169.667" y="0" type="line"/>
      <point x="74.667" y="0" type="line"/>
      <point x="74.667" y="707" type="line"/>
    </contour>
  </outline>
</glyph>
<glyph name="Tsecyr" format="2">
  <advance width="632"/>
  <unicode hex="0426"/>
  <outline>
    <contour>
      <point x="75.1377" y="-0.125" type="line"/>
      <point x="75.1377" y="83.54" type="line"/>
      <point x="571.755" y="83.54" type="line"/>
      <point x="571.755" y="-0.125" type="line"/>
    </contour>
    <contour>
      <point x="526.743" y="-169.94" type="line"/>
      <point x="526.743" y="83.756" type="line"/>
      <point x="621.409" y="83.757" type="line"/>
      <point x="621.409" y="-169.94" type="line"/>
    </contour>
    <contour>
      <point x="450.333" y="0" type="line"/>
      <point x="450.333" y="707" type="line"/>
      <point x="545" y="707" type="line"/>
      <point x="545" y="0" type="line"/>
    </contour>
    <contour>
      <point x="75.1685" y="0" type="line"/>
      <point x="75.1685" y="707" type="line"/>
      <point x="169.836" y="707" type="line"/>
      <point x="169.836" y="0" type="line"/>
    </contour>
  </outline>
</glyph>
<glyph name="Checyr" format="2">
  <advance width="643"/>
  <unicode hex="0427"/>
  <outline>
    <contour>
      <point x="74.667" y="462.831" type="curve" smooth="yes"/>
      <point x="74.667" y="707" type="line"/>
      <point x="170.333" y="707" type="line"/>
      <point x="170.333" y="469.165" type="line" smooth="yes"/>
      <point x="170.333" y="373.075"/>
      <point x="228.098" y="308.831"/>
      <point x="321.667" y="308.831" type="curve" smooth="yes"/>
      <point x="389.801" y="308.831"/>
      <point x="440.642" y="322.873"/>
      <point x="473.333" y="353.228" type="curve"/>
      <point x="510.869" y="353.504" type="line"/>
      <point x="510.869" y="282.274" type="line"/>
      <point x="467.406" y="243.438"/>
      <point x="408.283" y="225.831"/>
      <point x="321.667" y="225.831" type="curve" smooth="yes"/>
      <point x="172.428" y="225.831"/>
      <point x="74.667" y="319.637"/>
    </contour>
    <contour>
      <point x="473.333" y="707" type="line"/>
      <point x="568" y="707" type="line"/>
      <point x="568" y="0" type="line"/>
      <point x="473.333" y="0" type="line"/>
    </contour>
  </outline>
</glyph>
<glyph name="Hardcyr" format="2">
  <advance width="689"/>
  <unicode hex="042A"/>
  <outline>
    <component base="Softcyr" xOffset="102"/>
    <contour>
      <point x="0.000333333" y="623.333" type="line"/>
      <point x="0.000333333" y="707" type="line"/>
      <point x="260" y="707" type="line"/>
      <point x="260" y="623.333" type="line"/>
    </contour>
  </outline>
</glyph>
<glyph name="Ereversedcyr" format="2">
  <advance width="617"/>
  <unicode hex="042D"/>
  <outline>
    <contour>
      <point x="554.003" y="265.667" type="line" smooth="yes"/>
      <point x="554.003" y="98.855"/>
      <point x="478.762" y="-8"/>
      <point x="303.003" y="-8" type="curve" smooth="yes"/>
      <point x="163.357" y="-8"/>
      <point x="59.3364" y="67.061"/>
      <point x="59.3364" y="214.333" type="curve" smooth="yes"/>
      <point x="59.3364" y="219.333" type="line"/>
      <point x="152.003" y="219.333" type="line"/>
      <point x="151.259" y="126.251"/>
      <point x="211.656" y="77.333"/>
      <point x="301.336" y="77.333" type="curve" smooth="yes"/>
      <point x="419.972" y="77.333"/>
      <point x="459.669" y="156.076"/>
      <point x="459.669" y="263.667" type="curve" smooth="yes"/>
      <point x="459.669" y="437.333" type="line" smooth="yes"/>
      <point x="459.669" y="545.967"/>
      <point x="426.044" y="631.667"/>
      <point x="302.669" y="631.667" type="curve" smooth="yes"/>
      <point x="213.675" y="631.667"/>
      <point x="151.236" y="582.632"/>
      <point x="152.003" y="489.667" type="curve"/>
      <point x="57.3364" y="489.667" type="line"/>
      <point x="56.6854" y="637.154"/>
      <point x="161.685" y="716.333"/>
      <point x="302.336" y="716.333" type="curve" smooth="yes"/>
      <point x="478.793" y="716.333"/>
      <point x="554.003" y="609.043"/>
      <point x="554.003" y="441.667" type="curve" smooth="yes"/>
    </contour>
    <contour>
      <point x="486.336" y="317.976" type="line"/>
      <point x="246.109" y="317.976" type="line"/>
      <point x="246.109" y="401.642" type="line"/>
      <point x="486.336" y="401.642" type="line"/>
    </contour>
  </outline>
</glyph>
<glyph name="vecyr" format="2">
  <advance width="505"/>
  <unicode hex="0432"/>
  <anchor x="262.667" y="707" name="top"/>
  <outline>
    <component base="dotlessi" xOffset="-7"/>
    <contour>
      <point x="449.244" y="145.807" type="curve" smooth="yes"/>
      <point x="449.244" y="204.199"/>
      <point x="421.685" y="249.884"/>
      <point x="364.81" y="269.175" type="curve"/>
      <point x="413.307" y="287.321"/>
      <point x="441.197" y="330.539"/>
      <point x="441.197" y="381.837" type="curve" smooth="yes"/>
      <point x="441.197" y="479.257"/>
      <point x="370.039" y="523.333"/>
      <point x="272.843" y="523.333" type="curve" smooth="yes"/>
      <point x="126.517" y="523.333" type="line"/>
      <point x="126.517" y="459.724" type="line"/>
      <point x="258.624" y="459.76" type="line" smooth="yes"/>
      <point x="313.813" y="459.773"/>
      <point x="352.136" y="436.807"/>
      <point x="352.136" y="377.846" type="curve" smooth="yes"/>
      <point x="352.136" y="319.257"/>
      <point x="312.039" y="298.273"/>
      <point x="258.128" y="298.273" type="curve" smooth="yes"/>
      <point x="126.517" y="298.273" type="line"/>
      <point x="126.517" y="234.85" type="line"/>
      <point x="263.11" y="234.85" type="line" smooth="yes"/>
      <point x="320.271" y="234.85"/>
      <point x="360.1" y="211.731"/>
      <point x="360.1" y="150.544" type="curve" smooth="yes"/>
      <point x="360.1" y="88.468"/>
      <point x="321.306" y="63.494"/>
      <point x="262.614" y="63.58" type="curve" smooth="yes"/>
      <point x="126.517" y="63.774" type="line"/>
      <point x="126.517" y="0" type="line"/>
      <point x="278.9" y="0" type="line" smooth="yes"/>
      <point x="378.862" y="0"/>
      <point x="449.244" y="46.787"/>
    </contour>
  </outline>
</glyph>
<glyph name="gecyr" format="2">
  <advance width="443"/>
  <unicode hex="0433"/>
  <anchor x="231.333" y="523.333" name="top"/>
  <outline>
    <component base="dotlessi"/>
    <contour>
      <point x="76.667" y="459.667" type="line"/>
      <point x="76.667" y="523.333" type="line"/>
      <point x="397.495" y="523.333" type="line"/>
      <point x="397.495" y="459.667" type="line"/>
    </contour>
  </outline>
</glyph>
<glyph name="decyr" format="2">
  <advance width="568"/>
  <unicode hex="0434"/>
  <outline>
    <component base="dotlessi" xOffset="318.667"/>
    <contour>
      <point x="10.208" y="-169.94" type="line"/>
      <point x="10.208" y="63.648" type="line"/>
      <point x="102.208" y="63.648" type="line"/>
      <point x="102.208" y="-169.94" type="line"/>
    </contour>
    <contour>
      <point x="35.804" y="-0.093" type="line"/>
      <point x="35.804" y="63.573" type="line"/>
      <point x="503.701" y="63.573" type="line"/>
      <point x="503.701" y="-0.093" type="line"/>
    </contour>
    <contour>
      <point x="466.076" y="-169.94" type="line"/>
      <point x="466.076" y="63.756" type="line"/>
      <point x="558.076" y="63.756" type="line"/>
      <point x="558.076" y="-169.94" type="line"/>
    </contour>
    <contour>
      <point x="40.033" y="63.648" type="line"/>
      <point x="96.86" y="63.687"/>
      <point x="142.176" y="203.908"/>
      <point x="156.688" y="409.118" type="curve" smooth="yes"/>
      <point x="165.401" y="523.331" type="line"/>
      <point x="253.333" y="523.331" type="line"/>
      <point x="244.887" y="401.879" type="line"/>
      <point x="230.533" y="162.939"/>
      <point x="172.297" y="18.306"/>
      <point x="83.533" y="0" type="curve"/>
    </contour>
    <contour>
      <point x="193.333" y="449.667" type="line"/>
      <point x="193.333" y="523.333" type="line"/>
      <point x="451.333" y="523.333" type="line"/>
      <point x="451.333" y="449.667" type="line"/>
    </contour>
  </outline>
</glyph>
<glyph name="icyr" format="2">
  <advance width="556"/>
  <unicode hex="0438"/>
  <anchor x="274" y="523.333" name="top"/>
  <outline>
    <contour>
      <point x="410.684" y="523.333" type="curve"/>
      <point x="486.017" y="523.333" type="line"/>
      <point x="486.017" y="0" type="line"/>
      <point x="397.351" y="0" type="line"/>
      <point x="397.351" y="346.806" type="line" smooth="yes"/>
      <point x="397.351" y="395.279"/>
      <point x="405.595" y="474"/>
    </contour>
    <contour>
      <point x="69.667" y="523.333" type="line"/>
      <point x="158.333" y="523.333" type="line"/>
      <point x="158.333" y="176.987" type="line" smooth="yes"/>
      <point x="158.333" y="128.362"/>
      <point x="151.048" y="48.865"/>
      <point x="145" y="0" type="curve"/>
      <point x="69.667" y="0" type="line"/>
    </contour>
    <contour>
      <point x="168.333" y="0" type="line"/>
      <point x="142.217" y="-0.08" type="line"/>
      <point x="142.217" y="122.149" type="line"/>
      <point x="158.333" y="122.333" type="line"/>
      <point x="166.519" y="140.386"/>
      <point x="175.85" y="159.292"/>
      <point x="185.969" y="176.684" type="curve" smooth="yes"/>
      <point x="387.346" y="523.196" type="line"/>
      <point x="413.627" y="523.338" type="line"/>
      <point x="413.627" y="401.3" type="line"/>
      <point x="397.346" y="401.196" type="line"/>
      <point x="389.13" y="380.614"/>
      <point x="382.244" y="368.363"/>
      <point x="369.692" y="346.755" type="curve" smooth="yes"/>
    </contour>
  </outline>
</glyph>
<glyph name="pecyr" format="2">
  <advance width="526"/>
  <unicode hex="043F"/>
  <anchor x="265" y="523.333" name="top"/>
  <outline>
    <component base="dotlessi" xOffset="-7"/>
    <component base="dotlessi" xOffset="290.684"/>
    <contour>
      <point x="96.6667" y="459.667" type="line"/>
      <point x="96.6667" y="523.334" type="line"/>
      <point x="417.495" y="523.334" type="line"/>
      <point x="417.495" y="459.667" type="line"/>
    </contour>
  </outline>
</glyph>
<glyph name="tecyr" format="2">
  <advance width="402"/>
  <unicode hex="0442"/>
  <anchor x="201" y="523.333" name="top"/>
  <outline>
    <component base="dotlessi" xOffset="80"/>
    <contour>
      <point x="0" y="459.667" type="line"/>
      <point x="0" y="523.333" type="line"/>
      <point x="401.799" y="523.333" type="line"/>
      <point x="401.799" y="459.667" type="line"/>
    </contour>
  </outline>
</glyph>
<glyph name="efcyr" format="2">
  <advance width="821"/>
  <unicode hex="0444"/>
  <anchor x="563.5" y="523.333" name="top"/>
  <outline>
    <contour>
      <point x="231.167" y="-6" type="curve" smooth="yes"/>
      <point x="102.463" y="-6"/>
      <point x="55.833" y="95.057"/>
      <point x="55.833" y="209.333" type="curve" smooth="yes"/>
      <point x="55.833" y="315" type="line" smooth="yes"/>
      <point x="55.833" y="432.48"/>
      <point x="105.633" y="529.667"/>
      <point x="235.833" y="529.667" type="curve" smooth="yes"/>
      <point x="291.38" y="529.667"/>
      <point x="338.47" y="504.42"/>
      <point x="367.167" y="456.667" type="curve"/>
      <point x="367.27" y="706.993" type="line"/>
      <point x="453.663" y="706.993" type="line"/>
      <point x="454" y="456.667" type="line"/>
      <point x="482.687" y="504.42"/>
      <point x="529.77" y="529.667"/>
      <point x="585.333" y="529.667" type="curve" smooth="yes"/>
      <point x="715.523" y="529.667"/>
      <point x="765.333" y="432.48"/>
      <point x="765.333" y="315" type="curve" smooth="yes"/>
      <point x="765.333" y="209.333" type="line" smooth="yes"/>
      <point x="765.333" y="95.057"/>
      <point x="718.693" y="-6"/>
      <point x="590" y="-6" type="curve" smooth="yes"/>
      <point x="534.52" y="-6"/>
      <point x="485.51" y="14.167"/>
      <point x="455" y="62" type="curve"/>
      <point x="455" y="-157.333" type="line"/>
      <point x="366.167" y="-157.333" type="line"/>
      <point x="366.167" y="62" type="line"/>
      <point x="335.647" y="14.167"/>
      <point x="286.637" y="-6"/>
    </contour>
    <contour>
      <point x="571.98" y="72.667" type="curve" smooth="yes"/>
      <point x="656.073" y="72.667"/>
      <point x="676.647" y="142.4"/>
      <point x="676.647" y="213.333" type="curve" smooth="yes"/>
      <point x="676.647" y="310" type="line" smooth="yes"/>
      <point x="676.647" y="383.443"/>
      <point x="653.843" y="450.667"/>
      <point x="568.313" y="450.667" type="curve" smooth="yes"/>
      <point x="484.68" y="450.667"/>
      <point x="454.98" y="379.637"/>
      <point x="454.98" y="306.667" type="curve" smooth="yes"/>
      <point x="454.98" y="214" type="line" smooth="yes"/>
      <point x="454.98" y="140.06"/>
      <point x="489.597" y="72.667"/>
    </contour>
    <contour>
      <point x="250.2" y="72.667" type="curve" smooth="yes"/>
      <point x="329.927" y="72.667"/>
      <point x="367.04" y="135.711"/>
      <point x="367.04" y="206.86" type="curve" smooth="yes"/>
      <point x="367.04" y="314.58" type="line" smooth="yes"/>
      <point x="367.04" y="384.679"/>
      <point x="334.47" y="450.667"/>
      <point x="253.867" y="450.667" type="curve" smooth="yes"/>
      <point x="168.333" y="450.667"/>
      <point x="145.533" y="383.443"/>
      <point x="145.533" y="310" type="curve" smooth="yes"/>
      <point x="145.533" y="213.333" type="line" smooth="yes"/>
      <point x="145.533" y="142.4"/>
      <point x="166.103" y="72.667"/>
    </contour>
  </outline>
</glyph>
<glyph name="tsecyr" format="2">
  <advance width="540"/>
  <unicode hex="0446"/>
  <outline>
    <component base="dotlessi" xOffset="-7"/>
    <component base="dotlessi" xOffset="290.684"/>
    <contour>
      <point x="99.3333" y="0" type="line"/>
      <point x="99.3333" y="63.667" type="line"/>
      <point x="420.161" y="63.667" type="line"/>
      <point x="420.161" y="0" type="line"/>
    </contour>
    <contour>
      <point x="437.41" y="-169.94" type="line"/>
      <point x="437.41" y="63.756" type="line"/>
      <point x="529.41" y="63.756" type="line"/>
      <point x="529.41" y="-169.94" type="line"/>
    </contour>
  </outline>
</glyph>
<glyph name="shacyr" format="2">
  <advance width="780"/>
  <unicode hex="0448"/>
  <outline>
    <component base="dotlessi" xOffset="-7"/>
    <component base="dotlessi" xOffset="544.364"/>
    <component base="dotlessi" xOffset="269.037"/>
    <contour>
      <point x="99.3333" y="0" type="line"/>
      <point x="99.3333" y="63.667" type="line"/>
      <point x="675.751" y="63.667" type="line"/>
      <point x="675.751" y="0" type="line"/>
    </contour>
  </outline>
</glyph>
<glyph name="shchacyr" format="2">
  <advance width="793"/>
  <unicode hex="0449"/>
  <outline>
    <contour>
      <point x="690.743" y="-169.94" type="line"/>
      <point x="690.743" y="63.756" type="line"/>
      <point x="782.743" y="63.756" type="line"/>
      <point x="782.743" y="-169.94" type="line"/>
    </contour>
    <contour>
      <point x="69.667" y="523.333" type="line"/>
      <point x="158.333" y="523.333" type="line"/>
      <point x="158.333" y="0" type="line"/>
      <point x="69.667" y="0" type="line"/>
    </contour>
    <contour>
      <point x="621.031" y="523.333" type="line"/>
      <point x="709.697" y="523.333" type="line"/>
      <point x="709.697" y="0" type="line"/>
      <point x="621.031" y="0" type="line"/>
    </contour>
    <contour>
      <point x="99.3333" y="0" type="line"/>
      <point x="99.3333" y="63.667" type="line"/>
      <point x="675.751" y="63.667" type="line"/>
      <point x="675.751" y="0" type="line"/>
    </contour>
    <contour>
      <point x="345.704" y="523.333" type="line"/>
      <point x="434.37" y="523.333" type="line"/>
      <point x="434.37" y="0" type="line"/>
      <point x="345.704" y="0" type="line"/>
    </contour>
  </outline>
</glyph>
<glyph name="softcyr" format="2">
  <advance width="477"/>
  <unicode hex="044C"/>
  <outline>
    <component base="dotlessi" xOffset="-7"/>
    <contour>
      <point x="421.243" y="145.807" type="curve" smooth="yes"/>
      <point x="421.243" y="238.757"/>
      <point x="354.695" y="298.273"/>
      <point x="250.794" y="298.273" type="curve" smooth="yes"/>
      <point x="98.5173" y="298.273" type="line"/>
      <point x="98.5173" y="234.85" type="line"/>
      <point x="235.11" y="234.85" type="line" smooth="yes"/>
      <point x="292.271" y="234.85"/>
      <point x="332.1" y="211.731"/>
      <point x="332.1" y="150.544" type="curve" smooth="yes"/>
      <point x="332.1" y="88.468"/>
      <point x="293.306" y="63.494"/>
      <point x="234.614" y="63.58" type="curve" smooth="yes"/>
      <point x="98.5173" y="63.774" type="line"/>
      <point x="98.5173" y="0" type="line"/>
      <point x="250.899" y="0" type="line" smooth="yes"/>
      <point x="358.723" y="0"/>
      <point x="421.243" y="53.514"/>
    </contour>
  </outline>
</glyph>
<glyph name="njecyr" format="2">
  <advance width="785"/>
  <unicode hex="045A"/>
  <outline>
    <contour>
      <point x="729.243" y="145.807" type="curve" smooth="yes"/>
      <point x="729.243" y="53.514"/>
      <point x="666.723" y="0"/>
      <point x="558.899" y="0" type="curve" smooth="yes"/>
      <point x="406.517" y="0" type="line"/>
      <point x="406.517" y="63.774" type="line"/>
      <point x="542.614" y="63.58" type="line" smooth="yes"/>
      <point x="601.306" y="63.494"/>
      <point x="640.1" y="88.468"/>
      <point x="640.1" y="150.544" type="curve" smooth="yes"/>
      <point x="640.1" y="211.731"/>
      <point x="600.271" y="234.85"/>
      <point x="543.11" y="234.85" type="curve" smooth="yes"/>
      <point x="406.517" y="234.85" type="line"/>
      <point x="406.517" y="298.273" type="line"/>
      <point x="558.794" y="298.273" type="line" smooth="yes"/>
      <point x="662.695" y="298.273"/>
      <point x="729.243" y="238.757"/>
    </contour>
    <contour>
      <point x="377.667" y="523.333" type="line"/>
      <point x="466.333" y="523.333" type="line"/>
      <point x="466.333" y="0" type="line"/>
      <point x="377.667" y="0" type="line"/>
    </contour>
    <contour>
      <point x="69.667" y="523.333" type="line"/>
      <point x="158.333" y="523.333" type="line"/>
      <point x="158.333" y="0" type="line"/>
      <point x="69.667" y="0" type="line"/>
    </contour>
    <contour>
      <point x="377.351" y="523.333" type="line"/>
      <point x="466.017" y="523.333" type="line"/>
      <point x="466.017" y="0" type="line"/>
      <point x="377.351" y="0" type="line"/>
    </contour>
    <contour>
      <point x="106.667" y="246" type="line"/>
      <point x="106.667" y="309.667" type="line"/>
      <point x="427.495" y="309.667" type="line"/>
      <point x="427.495" y="246" type="line"/>
    </contour>
  </outline>
</glyph>
<glyph name="tshecyr" format="2">
  <advance width="533"/>
  <unicode hex="045B"/>
  <anchor x="113.333" y="707" name="top"/>
  <outline>
    <contour>
      <point x="69.667" y="707" type="line"/>
      <point x="158" y="707" type="line"/>
      <point x="158" y="465.667" type="line"/>
      <point x="189.63" y="508.942"/>
      <point x="239.515" y="529.667"/>
      <point x="292.333" y="529.667" type="curve" smooth="yes"/>
      <point x="407.163" y="529.667"/>
      <point x="464.333" y="452.447"/>
      <point x="464.333" y="343" type="curve" smooth="yes"/>
      <point x="464.333" y="0" type="line"/>
      <point x="375.333" y="0" type="line"/>
      <point x="375.333" y="331.333" type="line" smooth="yes"/>
      <point x="375.333" y="400.709"/>
      <point x="341.402" y="450.667"/>
      <point x="267.667" y="450.667" type="curve" smooth="yes"/>
      <point x="196.121" y="450.667"/>
      <point x="158" y="399.462"/>
      <point x="158" y="331.333" type="curve" smooth="yes"/>
      <point x="158" y="0" type="line"/>
      <point x="69.667" y="0" type="line"/>
    </contour>
    <contour>
      <point x="0" y="651.726" type="line"/>
      <point x="273.333" y="651.726" type="line"/>
      <point x="273.333" y="571.393" type="line"/>
      <point x="0" y="571.393" type="line"/>
    </contour>
  </outline>
</glyph>
<glyph name="quotedblleft" format="2">
  <advance width="341"/>
  <unicode hex="201C"/>
  <outline>
    <contour>
      <point x="133.667" y="485.667" type="line"/>
      <point x="48.333" y="485.667" type="line"/>
      <point x="48.333" y="668.667" type="line"/>
      <point x="133.667" y="744.667" type="line"/>
    </contour>
    <contour>
      <point x="291.667" y="485.667" type="line"/>
      <point x="207" y="485.667" type="line"/>
      <point x="207" y="668.667" type="line"/>
      <point x="291.667" y="744.667" type="line"/>
    </contour>
  </outline>
</glyph>
<glyph name="guilsinglleft" format="2">
  <advance width="303"/>
  <unicode hex="2039"/>
  <outline>
    <contour>
      <point x="23.333" y="270" type="line"/>
      <point x="233.333" y="483" type="line"/>
      <point x="233.333" y="381.667" type="line"/>
      <point x="124.333" y="270" type="line"/>
      <point x="233.333" y="159.333" type="line"/>
      <point x="233.333" y="58" type="line"/>
    </contour>
  </outline>
</glyph>
<glyph name="guilsinglright" format="2">
  <advance width="315"/>
  <unicode hex="203A"/>
  <outline>
    <contour>
      <point x="69.667" y="159.333" type="line"/>
      <point x="180" y="270" type="line"/>
      <point x="69.667" y="381.667" type="line"/>
      <point x="69.667" y="483" type="line"/>
      <point x="280" y="270" type="line"/>
      <point x="69.667" y="58" type="line"/>
    </contour>
  </outline>
</glyph>
<glyph name="fi" format="2">
  <advance width="579"/>
  <unicode hex="FB01"/>
  <outline>
    <contour>
      <point x="197.667" y="523.333" type="curve"/>
      <point x="302" y="523.333" type="line"/>
      <point x="302" y="457" type="line"/>
      <point x="197.667" y="457" type="line"/>
      <point x="197.667" y="0" type="line"/>
      <point x="109" y="0" type="line"/>
      <point x="109" y="457" type="line"/>
      <point x="46.333" y="457" type="line"/>
      <point x="46.333" y="523.333" type="line"/>
      <point x="109" y="523.333" type="line"/>
      <point x="109" y="573.333" type="line" smooth="yes"/>
      <point x="109" y="656.117"/>
      <point x="158.445" y="707"/>
      <point x="241.667" y="707" type="curve" smooth="yes"/>
      <point x="302" y="707" type="line"/>
      <point x="302" y="641" type="line"/>
      <point x="194.115" y="641"/>
      <point x="197.667" y="628.799"/>
    </contour>
    <contour>
      <point x="414" y="523.333" type="line"/>
      <point x="502" y="523.333" type="line"/>
      <point x="502" y="0" type="line"/>
      <point x="414" y="0" type="line"/>
    </contour>
    <contour>
      <point x="412" y="699.667" type="line"/>
      <point x="504.333" y="699.667" type="line"/>
      <point x="504.333" y="604.333" type="line"/>
      <point x="412" y="604.333" type="line"/>
    </contour>
  </outline>
</glyph>
<glyph name="fl" format="2">
  <advance width="621"/>
  <unicode hex="FB02"/>
  <outline>
    <contour>
      <point x="197.667" y="523.333" type="curve"/>
      <point x="302" y="523.333" type="line"/>
      <point x="302" y="457" type="line"/>
      <point x="197.667" y="457" type="line"/>
      <point x="197.667" y="0" type="line"/>
      <point x="109" y="0" type="line"/>
      <point x="109" y="457" type="line"/>
      <point x="46.333" y="457" type="line"/>
      <point x="46.333" y="523.333" type="line"/>
      <point x="109" y="523.333" type="line"/>
      <point x="109" y="573.333" type="line" smooth="yes"/>
      <point x="109" y="656.117"/>
      <point x="158.445" y="707"/>
      <point x="241.667" y="707" type="curve" smooth="yes"/>
      <point x="302" y="707" type="line"/>
      <point x="302" y="641" type="line"/>
      <point x="194.115" y="641"/>
      <point x="197.667" y="628.799"/>
    </contour>
    <contour>
      <point x="407" y="144.667" type="curve" smooth="yes"/>
      <point x="407" y="707" type="line"/>
      <point x="495.333" y="707" type="line"/>
      <point x="495.333" y="150" type="line" smooth="yes"/>
      <point x="495.333" y="73.526"/>
      <point x="535.63" y="78.667"/>
      <point x="598.333" y="78.667" type="curve"/>
      <point x="598.333" y="0" type="line"/>
      <point x="546.333" y="0" type="line" smooth="yes"/>
      <point x="453.363" y="0"/>
      <point x="407" y="53.772"/>
    </contour>
  </outline>
</glyph>
<glyph name="Decyr.loclBGR" format="2">
  <advance width="641"/>
  <outline>
    <component base="V" xScale="-1" yScale="-1" xOffset="575.667" yOffset="707"/>
    <contour>
      <point x="40.471" y="-0.125" type="line"/>
      <point x="40.471" y="83.54" type="line"/>
      <point x="509.047" y="83.54" type="line"/>
      <point x="509.047" y="-0.125" type="line"/>
    </contour>
    <contour>
      <point x="14.874" y="-169.94" type="line"/>
      <point x="14.874" y="83.648" type="line"/>
      <point x="109.541" y="83.648" type="line"/>
      <point x="109.541" y="-169.94" type="line"/>
    </contour>
    <contour>
      <point x="494.076" y="-169.94" type="line"/>
      <point x="494.076" y="83.756" type="line"/>
      <point x="588.743" y="83.757" type="line"/>
      <point x="588.743" y="-169.94" type="line"/>
    </contour>
  </outline>
</glyph>
<glyph name="five.tosf" format="2">
  <advance width="524"/>
  <outline>
    <contour>
      <point x="74.333" y="9.333" type="curve"/>
      <point x="162.667" y="9.333" type="line"/>
      <point x="162.452" y="-54.188"/>
      <point x="195.643" y="-89.333"/>
      <point x="259.667" y="-89.333" type="curve" smooth="yes"/>
      <point x="349.394" y="-89.333"/>
      <point x="356.876" y="-17.031"/>
      <point x="356.876" y="54.309" type="curve" smooth="yes"/>
      <point x="356.876" y="127.482"/>
      <point x="354.976" y="210"/>
      <point x="260" y="210" type="curve" smooth="yes"/>
      <point x="215.937" y="210"/>
      <point x="182.229" y="187.649"/>
      <point x="167" y="146" type="curve"/>
      <point x="85" y="146" type="line"/>
      <point x="85" y="528.333" type="line"/>
      <point x="437.667" y="528.333" type="line"/>
      <point x="437.667" y="444" type="line"/>
      <point x="169" y="444" type="line"/>
      <point x="169" y="251.333" type="line"/>
      <point x="195.864" y="279.019"/>
      <point x="237.866" y="293"/>
      <point x="276" y="293" type="curve" smooth="yes"/>
      <point x="420.144" y="293"/>
      <point x="449.932" y="190.597"/>
      <point x="449.932" y="72.657" type="curve" smooth="yes"/>
      <point x="449.932" y="26.333" type="line" smooth="yes"/>
      <point x="449.932" y="-93.909"/>
      <point x="383.658" y="-171.667"/>
      <point x="260.333" y="-171.667" type="curve" smooth="yes"/>
      <point x="141.332" y="-171.667"/>
      <point x="74.216" y="-111.704"/>
    </contour>
  </outline>
</glyph>
<glyph name="four.sups" format="2">
  <advance width="344"/>
  <outline>
    <contour>
      <point x="315.333" y="511" type="line"/>
      <point x="279.333" y="511" type="line"/>
      <point x="279.333" y="440" type="line"/>
      <point x="197.667" y="440" type="line"/>
      <point x="197.667" y="511" type="line"/>
      <point x="35" y="511" type="line"/>
      <point x="35" y="582" type="line"/>
      <point x="154" y="867.667" type="line"/>
      <point x="235.333" y="867.667" type="line"/>
      <point x="117.333" y="582" type="line"/>
      <point x="197.667" y="582" type="line"/>
      <point x="197.667" y="678.667" type="line"/>
      <point x="279.333" y="678.667" type="line"/>
      <point x="279.333" y="582" type="line"/>
      <point x="315.333" y="582" type="line"/>
    </contour>
  </outline>
</glyph>
<glyph name="kacyr.loclBGR" format="2">
  <advance width="514"/>
  <anchor x="113.333" y="707" name="top"/>
  <outline>
    <contour>
      <point x="158" y="707" type="line"/>
      <point x="158" y="0" type="line"/>
      <point x="69.667" y="0" type="line"/>
      <point x="69.667" y="707" type="line"/>
    </contour>
    <contour>
      <point x="148.176" y="259.87" type="line"/>
      <point x="148.176" y="286.278" type="line"/>
      <point x="203.217" y="286.261" type="line"/>
      <point x="395.238" y="523.333" type="line"/>
      <point x="501.572" y="523.333" type="line"/>
      <point x="279.785" y="259.859" type="line"/>
    </contour>
    <contour>
      <point x="224.447" y="251.229" type="line"/>
      <point x="302.892" y="296.357" type="line"/>
      <point x="496.667" y="0" type="line"/>
      <point x="389" y="0" type="line"/>
    </contour>
    <contour>
      <point x="130" y="246" type="line"/>
      <point x="130" y="309.667" type="line"/>
      <point x="280.148" y="309.667" type="line"/>
      <point x="280.148" y="246" type="line"/>
    </contour>
  </outline>
</glyph>
<glyph name="nine.tosf" format="2">
  <advance width="524"/>
  <outline>
    <contour>
      <point x="310.667" y="132.667" type="line"/>
      <point x="291.826" y="120.992"/>
      <point x="264.677" y="116"/>
      <point x="242.667" y="116" type="curve" smooth="yes"/>
      <point x="131.557" y="116"/>
      <point x="64" y="193.882"/>
      <point x="64" y="302.333" type="curve" smooth="yes"/>
      <point x="64" y="335.667" type="line" smooth="yes"/>
      <point x="64" y="456.578"/>
      <point x="145.861" y="533"/>
      <point x="265.333" y="533" type="curve" smooth="yes"/>
      <point x="386.437" y="533"/>
      <point x="466" y="461.198"/>
      <point x="466" y="338" type="curve" smooth="yes"/>
      <point x="466" y="305" type="line" smooth="yes"/>
      <point x="466" y="251.106"/>
      <point x="447.104" y="203.424"/>
      <point x="422.667" y="156.333" type="curve" smooth="yes"/>
      <point x="259.667" y="-158" type="line"/>
      <point x="160.667" y="-158" type="line"/>
    </contour>
    <contour>
      <point x="371" y="306.667" type="curve" smooth="yes"/>
      <point x="371" y="339" type="line" smooth="yes"/>
      <point x="371" y="404.885"/>
      <point x="333.036" y="449.667"/>
      <point x="265.333" y="449.667" type="curve" smooth="yes"/>
      <point x="197.941" y="449.667"/>
      <point x="158.667" y="405.412"/>
      <point x="158.667" y="339.333" type="curve" smooth="yes"/>
      <point x="158.667" y="307.667" type="line" smooth="yes"/>
      <point x="158.667" y="241.934"/>
      <point x="198.761" y="198.667"/>
      <point x="265.333" y="198.667" type="curve" smooth="yes"/>
      <point x="331.33" y="198.667"/>
      <point x="371" y="241.527"/>
    </contour>
  </outline>
</glyph>
<glyph name="one.numr" format="2">
  <advance width="238"/>
  <outline>
    <contour>
      <point x="100.333" y="618.667" type="line"/>
      <point x="28" y="564.333" type="line"/>
      <point x="28" y="652.333" type="line"/>
      <point x="100.667" y="707" type="line"/>
      <point x="183" y="707" type="line"/>
      <point x="183" y="279.333" type="line"/>
      <point x="100.333" y="279.333" type="line"/>
    </contour>
  </outline>
</glyph>
<glyph name="one.tlf" format="2">
  <advance width="524"/>
  <outline>
    <contour>
      <point x="288" y="599.667" type="line"/>
      <point x="94.667" y="490.333" type="line"/>
      <point x="94.667" y="596" type="line"/>
      <point x="287.333" y="706.667" type="line"/>
      <point x="382" y="706.667" type="line"/>
      <point x="382" y="-0.333" type="line"/>
      <point x="288" y="-0.333" type="line"/>
    </contour>
  </outline>
</glyph>
<glyph name="seven.osf" format="2">
  <advance width="450"/>
  <outline>
    <contour>
      <point x="409" y="528.334" type="line"/>
      <point x="409" y="444" type="line"/>
      <point x="184" y="-161.333" type="line"/>
      <point x="88.9997" y="-161.333" type="line"/>
      <point x="318" y="444" type="line"/>
      <point x="34.3337" y="444" type="line"/>
      <point x="34.3337" y="528.334" type="line"/>
    </contour>
  </outline>
</glyph>
<glyph name="seven.tosf" format="2">
  <advance width="524"/>
  <outline>
    <contour>
      <point x="454" y="528.334" type="line"/>
      <point x="454" y="444" type="line"/>
      <point x="229" y="-161.333" type="line"/>
      <point x="134" y="-161.333" type="line"/>
      <point x="363" y="444" type="line"/>
      <point x="79.3337" y="444" type="line"/>
      <point x="79.3337" y="528.334" type="line"/>
    </contour>
  </outline>
</glyph>
<glyph name="shchacyr.loclBGR" format="2">
  <advance width="847"/>
  <outline>
    <component base="m" xScale="-1" xyScale="-5.94961e-17" yScale="-1" xOffset="839" yOffset="523.333"/>
    <contour>
      <point x="744.378" y="-169.94" type="line"/>
      <point x="744.378" y="63.756" type="line"/>
      <point x="836.378" y="63.756" type="line"/>
      <point x="836.378" y="-169.94" type="line"/>
    </contour>
  </outline>
</glyph>
<glyph name="t_t" format="2">
  <advance width="657"/>
  <outline>
    <contour>
      <point x="503.333" y="457" type="line"/>
      <point x="503.333" y="142" type="line" smooth="yes"/>
      <point x="503.333" y="71.019"/>
      <point x="552.413" y="76.667"/>
      <point x="606.667" y="76.667" type="curve"/>
      <point x="606.667" y="0" type="line"/>
      <point x="552" y="0" type="line" smooth="yes"/>
      <point x="466.09" y="0"/>
      <point x="415.333" y="51.404"/>
      <point x="415.333" y="137.333" type="curve" smooth="yes"/>
      <point x="415.333" y="457" type="line"/>
      <point x="199" y="457" type="line"/>
      <point x="199" y="142" type="line" smooth="yes"/>
      <point x="199" y="71.39"/>
      <point x="247.667" y="76.667"/>
      <point x="301.667" y="76.667" type="curve"/>
      <point x="301.667" y="0" type="line"/>
      <point x="247" y="0" type="line" smooth="yes"/>
      <point x="161.09" y="0"/>
      <point x="110.333" y="51.404"/>
      <point x="110.333" y="137.333" type="curve" smooth="yes"/>
      <point x="110.333" y="457" type="line"/>
      <point x="32" y="457" type="line"/>
      <point x="32" y="523.333" type="line"/>
      <point x="110.333" y="523.333" type="line"/>
      <point x="110.333" y="637.667" type="line"/>
      <point x="199" y="674.333" type="line"/>
      <point x="199" y="523.333" type="line"/>
      <point x="415.333" y="523.333" type="line"/>
      <point x="415.333" y="637.667" type="line"/>
      <point x="503.333" y="674.333" type="line"/>
      <point x="503.333" y="523.333" type="line"/>
      <point x="616" y="523.333" type="line"/>
      <point x="616" y="457" type="line"/>
    </contour>
  </outline>
</glyph>
<glyph name="three.sups" format="2">
  <advance width="334"/>
  <outline>
    <contour>
      <point x="39.333" y="558" type="curve"/>
      <point x="111.667" y="558" type="line"/>
      <point x="111.667" y="522.51"/>
      <point x="123.878" y="500"/>
      <point x="163" y="500" type="curve" smooth="yes"/>
      <point x="206.263" y="500"/>
      <point x="213.667" y="532.442"/>
      <point x="213.667" y="568" type="curve" smooth="yes"/>
      <point x="213.667" y="621.435"/>
      <point x="179.863" y="627.333"/>
      <point x="135.667" y="627.333" type="curve"/>
      <point x="135.667" y="694.333" type="line"/>
      <point x="185.361" y="694.333"/>
      <point x="206.667" y="701.448"/>
      <point x="206.667" y="756.333" type="curve" smooth="yes"/>
      <point x="206.667" y="785.64"/>
      <point x="192.642" y="807.333"/>
      <point x="161.333" y="807.333" type="curve" smooth="yes"/>
      <point x="122.412" y="807.333"/>
      <point x="114" y="785.285"/>
      <point x="114" y="751" type="curve"/>
      <point x="41.333" y="751" type="line"/>
      <point x="41.333" y="762" type="line" smooth="yes"/>
      <point x="41.333" y="836.814"/>
      <point x="92.857" y="875"/>
      <point x="164" y="875" type="curve" smooth="yes"/>
      <point x="242.413" y="875"/>
      <point x="285.667" y="831.427"/>
      <point x="285.667" y="753.667" type="curve" smooth="yes"/>
      <point x="285.667" y="716.43"/>
      <point x="267.864" y="685.089"/>
      <point x="234.667" y="667.667" type="curve"/>
      <point x="281.768" y="647.608"/>
      <point x="292" y="602.826"/>
      <point x="292" y="556.333" type="curve" smooth="yes"/>
      <point x="292" y="481.482"/>
      <point x="237.862" y="433.667"/>
      <point x="164.667" y="433.667" type="curve" smooth="yes"/>
      <point x="80.257" y="433.667"/>
      <point x="39.333" y="474.317"/>
    </contour>
  </outline>
</glyph>
<glyph name="three.tosf" format="2">
  <advance width="524"/>
  <outline>
    <contour>
      <point x="65.356" y="25.667" type="line"/>
      <point x="157" y="25.667" type="line"/>
      <point x="156.698" y="-46.734"/>
      <point x="188.555" y="-83.333"/>
      <point x="259" y="-83.333" type="curve" smooth="yes"/>
      <point x="326.437" y="-83.333"/>
      <point x="363.667" y="-35.305"/>
      <point x="363.667" y="27.667" type="curve" smooth="yes"/>
      <point x="363.667" y="124.973"/>
      <point x="313.311" y="155.781"/>
      <point x="215.667" y="155.667" type="curve"/>
      <point x="215.667" y="237.333" type="line"/>
      <point x="315.653" y="237.204"/>
      <point x="352" y="261.024"/>
      <point x="352" y="356.333" type="curve" smooth="yes"/>
      <point x="352" y="412.404"/>
      <point x="314.596" y="451"/>
      <point x="256.333" y="451" type="curve" smooth="yes"/>
      <point x="189.454" y="451"/>
      <point x="161.045" y="412.405"/>
      <point x="161.333" y="340" type="curve"/>
      <point x="73" y="340" type="line"/>
      <point x="73" y="358" type="line" smooth="yes"/>
      <point x="73" y="469.539"/>
      <point x="146.774" y="532.667"/>
      <point x="259.333" y="532.667" type="curve" smooth="yes"/>
      <point x="371.186" y="532.667"/>
      <point x="444.667" y="464.558"/>
      <point x="444.667" y="357.333" type="curve" smooth="yes"/>
      <point x="444.667" y="283.577"/>
      <point x="415.088" y="232.181"/>
      <point x="357.667" y="205.333" type="curve"/>
      <point x="429.304" y="177.959"/>
      <point x="456.333" y="116.346"/>
      <point x="456.333" y="24.333" type="curve" smooth="yes"/>
      <point x="456.333" y="-89.862"/>
      <point x="375" y="-163.667"/>
      <point x="259" y="-163.667" type="curve" smooth="yes"/>
      <point x="141.055" y="-163.667"/>
      <point x="65.356" y="-104.939"/>
      <point x="65.356" y="13.703" type="curve" smooth="yes"/>
    </contour>
  </outline>
</glyph>
<glyph name="tsecyr.loclBGR" format="2">
  <advance width="544"/>
  <outline>
    <component base="n" xScale="-1" xyScale="-5.94961e-17" yScale="-1" xOffset="534" yOffset="523.333"/>
    <contour>
      <point x="441.605" y="-169.94" type="line"/>
      <point x="441.605" y="63.756" type="line"/>
      <point x="533.605" y="63.756" type="line"/>
      <point x="533.605" y="-169.94" type="line"/>
    </contour>
  </outline>
</glyph>
<glyph name="two.numr" format="2">
  <advance width="337"/>
  <outline>
    <contour>
      <point x="45.667" y="341.667" type="line"/>
      <point x="187" y="528.333" type="line" smooth="yes"/>
      <point x="204.873" y="552.029"/>
      <point x="211.333" y="566.797"/>
      <point x="211.333" y="596.667" type="curve" smooth="yes"/>
      <point x="211.333" y="625.405"/>
      <point x="197.068" y="646"/>
      <point x="166.667" y="646" type="curve" smooth="yes"/>
      <point x="126.636" y="646"/>
      <point x="121.667" y="614.597"/>
      <point x="121.667" y="582.333" type="curve"/>
      <point x="42.667" y="582.333" type="line"/>
      <point x="42.667" y="597.333" type="line" smooth="yes"/>
      <point x="42.667" y="672.063"/>
      <point x="98.459" y="714"/>
      <point x="169.667" y="714" type="curve" smooth="yes"/>
      <point x="248.226" y="714"/>
      <point x="294.333" y="666.86"/>
      <point x="294.333" y="589.333" type="curve" smooth="yes"/>
      <point x="294.333" y="548.743"/>
      <point x="277.844" y="519.311"/>
      <point x="254" y="488" type="curve" smooth="yes"/>
      <point x="149.333" y="349.667" type="line"/>
      <point x="295" y="349.667" type="line"/>
      <point x="295" y="279.333" type="line"/>
      <point x="45.667" y="279.333" type="line"/>
    </contour>
  </outline>
</glyph>
<glyph name="two.sups" format="2">
  <advance width="337"/>
  <outline>
    <contour>
      <point x="45.667" y="503.333" type="line"/>
      <point x="187" y="689.667" type="line" smooth="yes"/>
      <point x="205.044" y="713.54"/>
      <point x="211.333" y="728.267"/>
      <point x="211.333" y="758.333" type="curve" smooth="yes"/>
      <point x="211.333" y="786.449"/>
      <point x="196.385" y="807.333"/>
      <point x="166.667" y="807.333" type="curve" smooth="yes"/>
      <point x="125.842" y="807.333"/>
      <point x="121.667" y="775.717"/>
      <point x="121.667" y="743" type="curve"/>
      <point x="42.667" y="743" type="line"/>
      <point x="42.667" y="759" type="line" smooth="yes"/>
      <point x="42.667" y="834.356"/>
      <point x="98.076" y="875"/>
      <point x="169.667" y="875" type="curve" smooth="yes"/>
      <point x="248.836" y="875"/>
      <point x="294.333" y="828.992"/>
      <point x="294.333" y="750.667" type="curve" smooth="yes"/>
      <point x="294.333" y="709.19"/>
      <point x="278.193" y="681.566"/>
      <point x="254" y="649.667" type="curve" smooth="yes"/>
      <point x="149.333" y="511" type="line"/>
      <point x="295" y="511" type="line"/>
      <point x="295" y="440" type="line"/>
      <point x="45.667" y="440" type="line"/>
    </contour>
  </outline>
</glyph>
<glyph name="two.tosf" format="2">
  <advance width="524"/>
  <outline>
    <contour>
      <point x="77" y="75.333" type="line"/>
      <point x="291.667" y="266.333" type="line" smooth="yes"/>
      <point x="318.277" y="289.335"/>
      <point x="357" y="324.418"/>
      <point x="357" y="362" type="curve" smooth="yes"/>
      <point x="357" y="416.51"/>
      <point x="315.682" y="452.667"/>
      <point x="262.333" y="452.667" type="curve" smooth="yes"/>
      <point x="212.561" y="452.667"/>
      <point x="180.484" y="424.035"/>
      <point x="171.333" y="376" type="curve"/>
      <point x="78" y="376" type="line"/>
      <point x="87.914" y="437.548"/>
      <point x="135.672" y="471.485"/>
      <point x="196" y="471.667" type="curve"/>
      <point x="222.527" y="512.343"/>
      <point x="265.969" y="533.41"/>
      <point x="328" y="520" type="curve"/>
      <point x="395.33" y="501.745"/>
      <point x="453.025" y="442.199"/>
      <point x="453.025" y="367.085" type="curve" smooth="yes"/>
      <point x="453.025" y="311.319"/>
      <point x="426.063" y="270.808"/>
      <point x="385" y="235.667" type="curve"/>
      <point x="215.333" y="84" type="line"/>
      <point x="453" y="84" type="line"/>
      <point x="453" y="0" type="line"/>
      <point x="77" y="0" type="line"/>
    </contour>
  </outline>
</glyph>
<glyph name="yucyr.loclBGR" format="2">
  <advance width="700"/>
  <anchor x="495" y="523.333" name="top"/>
  <outline>
    <component base="o" xOffset="181"/>
    <contour>
      <point x="123" y="246" type="line"/>
      <point x="123" y="309.667" type="line"/>
      <point x="279.9" y="309.667" type="line"/>
      <point x="279.9" y="246" type="line"/>
    </contour>
    <contour>
      <point x="69.667" y="707" type="line"/>
      <point x="158.333" y="707" type="line"/>
      <point x="158.333" y="0" type="line"/>
      <point x="69.667" y="0" type="line"/>
    </contour>
  </outline>
</glyph>
<glyph name="zero.numr" format="2">
  <advance width="342"/>
  <outline>
    <contour>
      <point x="42.333" y="424.333" type="curve" smooth="yes"/>
      <point x="42.333" y="567.333" type="line" smooth="yes"/>
      <point x="42.333" y="653.655"/>
      <point x="77.704" y="713.667"/>
      <point x="171" y="713.667" type="curve" smooth="yes"/>
      <point x="266.63" y="713.667"/>
      <point x="300" y="656.223"/>
      <point x="300" y="567.333" type="curve" smooth="yes"/>
      <point x="300" y="424.333" type="line" smooth="yes"/>
      <point x="300" y="335.382"/>
      <point x="269.241" y="272"/>
      <point x="171" y="272" type="curve" smooth="yes"/>
      <point x="72.981" y="272"/>
      <point x="42.333" y="335.629"/>
    </contour>
    <contour>
      <point x="217.667" y="428" type="curve" smooth="yes"/>
      <point x="217.667" y="559" type="line" smooth="yes"/>
      <point x="217.667" y="593.983"/>
      <point x="217.66" y="643"/>
      <point x="171" y="643" type="curve" smooth="yes"/>
      <point x="123.392" y="643"/>
      <point x="124" y="594.653"/>
      <point x="124" y="559" type="curve" smooth="yes"/>
      <point x="124" y="428" type="line" smooth="yes"/>
      <point x="124" y="392.164"/>
      <point x="122.723" y="342.333"/>
      <point x="171" y="342.333" type="curve" smooth="yes"/>
      <point x="219.652" y="342.333"/>
      <point x="217.667" y="391.781"/>
    </contour>
  </outline>
</glyph>
<glyph name="zero.osf" format="2">
  <advance width="511"/>
  <outline>
    <contour>
      <point x="58.9997" y="216" type="curve" smooth="yes"/>
      <point x="58.9997" y="312" type="line" smooth="yes"/>
      <point x="58.9997" y="443.081"/>
      <point x="109.951" y="534"/>
      <point x="251.667" y="534" type="curve" smooth="yes"/>
      <point x="393.822" y="534"/>
      <point x="445.334" y="443.859"/>
      <point x="445.334" y="312" type="curve" smooth="yes"/>
      <point x="445.334" y="216" type="line" smooth="yes"/>
      <point x="445.334" y="83.762"/>
      <point x="395.637" y="-10"/>
      <point x="251.667" y="-10" type="curve" smooth="yes"/>
      <point x="108.153" y="-10"/>
      <point x="58.9997" y="84.551"/>
    </contour>
    <contour>
      <point x="350.667" y="232.667" type="curve" smooth="yes"/>
      <point x="350.667" y="290.333" type="line" smooth="yes"/>
      <point x="350.667" y="362.48"/>
      <point x="343.903" y="446"/>
      <point x="251.667" y="446" type="curve" smooth="yes"/>
      <point x="159.431" y="446"/>
      <point x="152.667" y="362.48"/>
      <point x="152.667" y="290.333" type="curve" smooth="yes"/>
      <point x="152.667" y="232.667" type="line" smooth="yes"/>
      <point x="152.667" y="160.52"/>
      <point x="159.431" y="77"/>
      <point x="251.667" y="77" type="curve" smooth="yes"/>
      <point x="343.903" y="77"/>
      <point x="350.667" y="160.52"/>
    </contour>
  </outline>
</glyph>
<glyph name="zero.tosf" format="2">
  <advance width="524"/>
  <outline>
    <contour>
      <point x="71.333" y="216" type="curve" smooth="yes"/>
      <point x="71.333" y="312" type="line" smooth="yes"/>
      <point x="71.333" y="443.081"/>
      <point x="122.284" y="534"/>
      <point x="264" y="534" type="curve" smooth="yes"/>
      <point x="406.155" y="534"/>
      <point x="457.667" y="443.859"/>
      <point x="457.667" y="312" type="curve" smooth="yes"/>
      <point x="457.667" y="216" type="line" smooth="yes"/>
      <point x="457.667" y="83.762"/>
      <point x="407.97" y="-10"/>
      <point x="264" y="-10" type="curve" smooth="yes"/>
      <point x="120.486" y="-10"/>
      <point x="71.333" y="84.551"/>
    </contour>
    <contour>
      <point x="363" y="232.667" type="curve" smooth="yes"/>
      <point x="363" y="290.333" type="line" smooth="yes"/>
      <point x="363" y="362.48"/>
      <point x="356.236" y="446"/>
      <point x="264" y="446" type="curve" smooth="yes"/>
      <point x="171.764" y="446"/>
      <point x="165" y="362.48"/>
      <point x="165" y="290.333" type="curve" smooth="yes"/>
      <point x="165" y="232.667" type="line" smooth="yes"/>
      <point x="165" y="160.52"/>
      <point x="171.764" y="77"/>
      <point x="264" y="77" type="curve" smooth="yes"/>
      <point x="356.236" y="77"/>
      <point x="363" y="160.52"/>
    </contour>
  </outline>
</glyph>
<glyph name="zhecyr.loclBGR" format="2">
  <advance width="799"/>
  <anchor x="736.667" y="581.667" name="top"/>
  <outline>
    <contour>
      <point x="443.333" y="707" type="line"/>
      <point x="443.333" y="0" type="line"/>
      <point x="355" y="0" type="line"/>
      <point x="355" y="707" type="line"/>
    </contour>
    <contour>
      <point x="509.78" y="251.229" type="line"/>
      <point x="588.225" y="296.357" type="line"/>
      <point x="782" y="0" type="line"/>
      <point x="674.333" y="0" type="line"/>
    </contour>
    <contour>
      <point x="433.509" y="259.87" type="line"/>
      <point x="433.509" y="286.278" type="line"/>
      <point x="488.55" y="286.261" type="line"/>
      <point x="648.054" y="523.333" type="line"/>
      <point x="754.387" y="523.333" type="line"/>
      <point x="565.118" y="259.859" type="line"/>
    </contour>
    <contour>
      <point x="415.333" y="246" type="line"/>
      <point x="415.333" y="309.667" type="line"/>
      <point x="565.481" y="309.667" type="line"/>
      <point x="565.481" y="246" type="line"/>
    </contour>
    <contour>
      <point x="289.656" y="251.229" type="line"/>
      <point x="211.211" y="296.357" type="line"/>
      <point x="17.4364" y="0" type="line"/>
      <point x="125.103" y="0" type="line"/>
    </contour>
    <contour>
      <point x="365.927" y="259.87" type="line"/>
      <point x="365.927" y="286.278" type="line"/>
      <point x="310.886" y="286.261" type="line"/>
      <point x="151.382" y="523.333" type="line"/>
      <point x="45.0494" y="523.333" type="line"/>
      <point x="234.318" y="259.859" type="line"/>
    </contour>
    <contour>
      <point x="384.103" y="246" type="line"/>
      <point x="384.103" y="309.667" type="line"/>
      <point x="233.955" y="309.667" type="line"/>
      <point x="233.955" y="246" type="line"/>
    </contour>
  </outline>
</glyph>
